<?xml version='1.0' encoding='utf-8'?>
<svg xmlns="http://www.w3.org/2000/svg" version="1.1" width="600px" height="976px" viewBox="0 0 600 976"> <g id="layer1"> <g> <g style="fill:rgb(0,0,0); fill-opacity:1.0; stroke-linejoin: miter"> <path d="M306.07138,446.36972C306.0709,446.36972,306.07025,446.36987,306.06952,446.37012L306.07254,446.37012C306.07227,446.36987,306.0719,446.36972,306.07138,446.36972 Z"/> </g> <g style="fill:rgb(0,0,0); fill-opacity:1.0; stroke-linejoin: miter"> <path d="M307.2047,445.62225C307.30093,445.62225,307.40674,445.6433,307.46136,445.67972C307.53363,445.72522,307.61658,445.84564,307.59515,445.86972C307.59418,445.87045,307.59283,445.8708,307.59116,445.8708C307.57425,445.8708,307.52292,445.83542,307.4694,445.78674C307.37842,445.7038,307.34363,445.69043,307.23657,445.69043C307.1242,445.69043,307.1001,445.7011,307.0011,445.80817C306.90744,445.90182,306.878,445.96338,306.82715,446.148C306.71744,446.5494,306.74152,446.8411,306.8994,447.0284C306.98587,447.1285,307.00656,447.17447,306.96146,447.17447C306.95352,447.17447,306.94354,447.17303,306.93152,447.17023C306.8566,447.14883,306.81647,447.07925,306.7335,446.8277C306.64786,446.56815,306.65323,446.45575,306.77365,446.0838C306.86996,445.79745,306.92883,445.7038,307.05194,445.6476C307.0897,445.63025,307.1454,445.62225,307.2047,445.62225 Z M319.99304,450.72128C320.0064,450.72128,320.01178,450.74002,320.00372,450.7614C319.99304,450.78284,319.98233,450.80157,319.977,450.80157C319.97162,450.80157,319.96628,450.78284,319.96628,450.7614C319.96628,450.74002,319.977,450.72128,319.99304,450.72128 Z M319.94485,450.8551C319.96094,450.8551,319.96628,450.88184,319.95557,450.91394C319.94754,450.94873,319.9395,450.99423,319.9395,451.01563C319.93848,451.0248,319.9363,451.02933,319.93326,451.02933C319.92828,451.02933,319.92105,451.01743,319.91275,450.99423C319.886,450.93,319.90204,450.8551,319.94485,450.8551 Z M320.15894,450.72128C320.21515,450.72128,320.26868,450.74536,320.31952,450.79352C320.39978,450.87115,320.4212,451.021,320.365,451.12537C320.32217,451.2083,320.14557,451.36084,320.09473,451.36353C320.02515,451.36353,320.03586,451.29395,320.1081,451.27252L320.16696,451.2538L320.10544,451.22437C320.07065,451.20563,320.04922,451.1789,320.05994,451.1548C320.06796,451.13605,320.0733,451.02902,320.0733,450.9193L320.0733,450.72128 Z M319.787,450.93L319.84586,451.07184C319.89938,451.20563,319.89938,451.22437,319.8646,451.31537C319.83246,451.39832,319.81107,451.41705,319.7522,451.41705C319.71472,451.41705,319.66122,451.401,319.63446,451.38226C319.58896,451.35013,319.58896,451.3421,319.63446,451.22974C319.66122,451.1628,319.7067,451.06915,319.73615,451.0183L319.787,450.93 Z M303.46878,448.1229L303.5357,448.14163C303.57315,448.14966,303.72568,448.24332,303.87555,448.35034C304.19397,448.57513,304.73187,449.05414,305.2831,449.6054C305.495,449.81726,305.68127,449.98566,305.70206,449.98566C305.70255,449.98566,305.70294,449.98557,305.70325,449.98538C305.71426,449.9782,305.72882,449.9748,305.74603,449.9748C305.8124,449.9748,305.9186,450.0256,306.01633,450.1085C306.12338,450.19678,306.1635,450.21286,306.26788,450.21286C306.4445,450.21286,306.73618,450.33862,307.62994,450.79352C308.56656,451.26987,308.78064,451.3903,308.77795,451.4438C308.77472,451.48932,308.7764,451.50818,308.801,451.50818C308.81693,451.50818,308.8424,451.5003,308.88232,451.48663C308.99026,451.44934,309.05994,451.42996,309.11566,451.42996C309.176,451.42996,309.21994,451.4527,309.27838,451.5L309.38007,451.58026L309.77075,451.5669C310.53342,451.5348,310.81708,451.52142,311.9383,451.45718C312.61,451.4197,313.30307,451.37155,313.50375,451.34747C313.54926,451.3421,313.69376,451.33676,313.8249,451.33408C313.98544,451.33142,314.11655,451.31268,314.22092,451.2779C314.2985,451.25156,314.34006,451.2388,314.3793,451.2388C314.4118,451.2388,314.44272,451.24756,314.4912,451.26453C314.54065,451.28183,314.5718,451.29114,314.6053,451.29114C314.6443,451.29114,314.6864,451.2785,314.76416,451.25113C314.85245,451.22168,314.9595,451.1869,315.00232,451.1762C315.0478,451.1628,315.18427,451.12268,315.31006,451.08255C315.43582,451.04507,315.57498,451.00226,315.6178,450.9889C315.66327,450.97818,315.8613,450.91663,316.05933,450.8551L316.4206,450.74268L316.55707,450.78818L316.69623,450.83368L316.91833,450.72128C317.0414,450.65973,317.21802,450.55536,317.3117,450.49115C317.45618,450.38947,317.5231,450.3627,317.79068,450.30652C317.9593,450.26904,318.10913,450.23157,318.12253,450.22354C318.13284,450.21756,318.1421,450.21478,318.15,450.21478C318.18106,450.21478,318.19202,450.2575,318.1707,450.3172C318.14124,450.3975,318.12253,450.4082,317.72647,450.5099C317.54718,450.55536,317.45084,450.60355,317.20465,450.76678C317.03876,450.8765,316.80325,451.021,316.68552,451.0852L316.46606,451.20563L316.44736,451.08255C316.4348,450.99905,316.4272,450.97253,316.40158,450.97253C316.39435,450.97253,316.38568,450.97464,316.3751,450.97818C316.34567,450.9862,316.15833,451.04242,315.95496,451.0986C315.75427,451.15747,315.39032,451.26453,315.14682,451.33676C314.77563,451.4471,314.68887,451.46817,314.50323,451.46817C314.49078,451.46817,314.4779,451.46808,314.46445,451.4679C314.4491,451.4677,314.4345,451.4676,314.42056,451.4676C314.2425,451.4676,314.16742,451.48557,313.89444,451.57492C313.72275,451.633,313.5749,451.6744,313.55426,451.6744C313.553,451.6744,313.55225,451.67426,313.55194,451.67395C313.54657,451.66858,313.57867,451.63647,313.6215,451.60437C313.667,451.57227,313.70447,451.5348,313.70447,451.52142C313.70447,451.50558,313.63672,451.49777,313.51337,451.49777C313.30334,451.49777,312.9322,451.5204,312.4601,451.5642C312.0641,451.599,311.66,451.6338,311.56366,451.6445C311.20508,451.67395,310.57086,451.71408,309.82962,451.75153C309.4068,451.77295,309.0081,451.80505,308.9412,451.8211C308.8743,451.83716,308.76724,451.85858,308.70035,451.87195C308.40332,451.9228,308.14374,451.98703,307.93234,452.06195C307.82053,452.10242,307.7214,452.13016,307.69516,452.13016C307.69186,452.13016,307.68973,452.12973,307.68884,452.12885C307.67276,452.1101,307.66473,452.11548,307.81726,452.0138C307.8842,451.9683,308.10895,451.8452,308.32037,451.74084C308.52908,451.6338,308.70035,451.54282,308.70035,451.5348C308.70035,451.53256,308.6953,451.53125,308.68692,451.53125C308.67505,451.53125,308.65652,451.53387,308.63614,451.54016C308.63177,451.54108,308.627,451.54156,308.6218,451.54156C308.5659,451.54156,308.45453,451.48663,308.1732,451.31537C307.5604,450.94608,306.96362,450.63297,306.70673,450.54736C306.6255,450.5199,306.5472,450.50565,306.4436,450.50565C306.3049,450.50565,306.12085,450.5312,305.82367,450.5848C305.54633,450.63522,305.37854,450.6632,305.30984,450.6632C305.21088,450.6632,305.3177,450.6051,305.59888,450.4724C305.80493,450.3761,305.91733,450.30917,305.91196,450.28778C305.90662,450.26904,305.85846,450.23157,305.80493,450.2048C305.76614,450.18597,305.7402,450.17493,305.67047,450.17493C305.5718,450.17493,305.38553,450.19702,304.9513,450.2503C304.53384,450.30383,304.13245,450.35736,304.0575,450.37073C303.98526,450.3841,303.8461,450.4082,303.74976,450.42426C303.65344,450.43762,303.42062,450.47778,303.2333,450.5099C303.0699,450.5371,302.9656,450.55054,302.91055,450.55054C302.86285,450.55054,302.85217,450.54047,302.87204,450.52057C302.88007,450.51257,303.02994,450.4644,303.20386,450.41623C303.48483,450.33594,303.70963,450.2851,304.21808,450.1861C304.3572,450.15933,305.04764,450.05496,305.23495,450.03357C305.3821,450.01483,305.39282,449.9961,305.31522,449.89172C305.1627,449.68567,304.19934,448.7464,303.7337,448.35034C303.66147,448.28882,303.57315,448.2112,303.5357,448.18176L303.46878,448.1229 Z M304.6817,453.68173C304.78516,453.68173,304.9011,453.69382,305.07172,453.71838C305.21622,453.73712,305.29382,453.7612,305.2724,453.7719C305.21515,453.8043,304.26825,453.883,303.97086,453.883C303.9486,453.883,303.93002,453.88257,303.91568,453.88162C303.7792,453.8736,304.1003,453.7612,304.41876,453.7077C304.5147,453.6905,304.5937,453.68173,304.6817,453.68173 Z M296.63495,485.53656C296.67807,485.53656,296.73224,485.53735,296.80023,485.5386C296.97952,485.5413,297.18823,485.55734,297.2605,485.57608C297.33542,485.59213,297.42105,485.62155,297.45584,485.6403C297.51813,485.67404,297.53513,485.71533,297.48724,485.71533C297.48575,485.71533,297.48422,485.7153,297.4826,485.7152C297.4731,485.71503,297.46375,485.71494,297.45456,485.71494C297.33688,485.71494,297.2471,485.73035,297.2471,485.7527C297.2471,485.77142,297.27655,485.81155,297.31403,485.84634C297.35147,485.88113,297.38092,485.93198,297.38092,485.96143C297.38092,486.03635,297.25247,486.0979,297.1026,486.0979C296.99557,486.0979,296.9608,486.07916,296.78418,485.94C296.57813,485.7741,296.47107,485.6537,296.47107,485.57608C296.47107,485.54532,296.4931,485.53656,296.63495,485.53656 Z M296.74982,486.15668C296.75,486.15668,296.7502,486.1567,296.75046,486.15677L296.7494,486.15677C296.74948,486.1567,296.74963,486.15668,296.74982,486.15668 Z M308.9022,443.43777C308.75757,443.43777,308.67932,443.4618,308.48627,443.51215C308.32217,443.55487,308.15244,443.599,308.00336,443.6376L308.00644,443.6376L307.76855,443.72556L307.47507,443.91974L307.47815,443.91974C307.4754,443.93494,307.4725,443.95157,307.4694,443.96976C307.448,444.08484,307.4346,444.19186,307.43997,444.2106C307.44263,444.22665,307.3677,444.33905,307.27136,444.4568C306.99307,444.79932,306.64786,445.3345,306.51407,445.6262C306.4525,445.76,306.44983,445.78943,306.4659,446.03296C306.48196,446.2631,306.47928,446.29788,306.43646,446.35138C306.37762,446.4176,306.0716,446.58044,306.01257,446.58044C306.00717,446.58044,306.00385,446.57907,306.00296,446.57617C305.9976,446.5628,306.01367,446.51196,306.03775,446.46646C306.06183,446.4183,306.07788,446.37552,306.07254,446.37012L306.0695,446.37012C306.05557,446.3749,306.00204,446.4224,305.9441,446.4852L305.82367,446.6056L305.63635,446.58954C305.53467,446.57886,305.37143,446.5628,305.2751,446.5521C305.21677,446.54562,305.14374,446.54205,305.07858,446.54205C305.03607,446.54205,304.99692,446.54358,304.96735,446.54675C304.76398,446.56815,304.9031,446.60028,305.2751,446.61633C305.44366,446.62433,305.6176,446.64575,305.66043,446.6618L305.73804,446.69122L305.6524,446.7635C305.58014,446.8224,305.56677,446.84912,305.58282,446.89996C305.62296,447.02307,305.82098,447.34955,306.00027,447.57965C306.47125,448.19513,306.65323,448.51358,306.8432,449.0488C306.86163,449.10254,306.86728,449.12854,306.86105,449.12854C306.84555,449.12854,306.7566,448.96802,306.60773,448.67413C306.50604,448.46808,306.35617,448.21387,306.27856,448.11218C306.201,448.0078,306.06183,447.8098,305.96548,447.67065C305.65775,447.21573,305.43298,446.89996,305.37946,446.8518C305.3393,446.81433,305.27777,446.80365,305.07974,446.80365C305.05307,446.80344,305.02832,446.8033,305.00528,446.8033C304.7206,446.8033,304.6985,446.82483,304.6168,447.0204C304.39737,447.53687,304.3813,447.55292,304.00665,447.68137C303.8943,447.7215,303.77386,447.7643,303.74173,447.7777C303.70963,447.7884,303.56244,447.82587,303.41528,447.85797C302.52417,448.0533,302.28867,448.14163,302.09332,448.3557C301.88193,448.58853,301.53406,449.32977,301.3307,449.98538C301.27448,450.162,301.2183,450.33594,301.2049,450.3734C301.16745,450.48044,301.04703,451.0879,301.02026,451.32336C300.95337,451.89337,300.95602,452.02448,301.04166,452.32687C301.08716,452.4821,301.1728,452.79517,301.23166,453.02264C301.39758,453.67023,301.88995,455.47116,301.93008,455.59158C301.94348,455.62906,301.9729,455.7334,301.997,455.8271C302.04785,456.0251,302.21106,456.53085,302.32883,456.84128L302.4091,457.0634L302.33685,457.06873C302.2967,457.06873,302.23248,457.06873,302.19235,457.06607C302.18228,457.06525,302.17352,457.06476,302.16595,457.06476C302.1232,457.06476,302.1174,457.0808,302.1174,457.14902C302.1174,457.19717,302.1415,457.43,302.1736,457.66547C302.22446,458.07758,302.22446,458.34784,302.16827,458.34784C302.15488,458.34784,302.14417,458.33984,302.14417,458.32645C302.14417,458.28632,302.08798,457.95715,302.0746,457.909C302.06772,457.88834,302.0597,457.87762,302.04987,457.87762C302.04443,457.87762,302.03845,457.8809,302.03177,457.88757C301.99432,457.92505,301.97025,458.79474,302.00235,458.87772C302.0072,458.88983,302.01233,458.897,302.01926,458.897C302.043,458.897,302.08807,458.81326,302.21643,458.55658C302.32346,458.34518,302.47064,458.08026,302.54556,457.96786C302.6823,457.7603,302.87924,457.5305,302.91467,457.5305C302.9181,457.5305,302.91998,457.5326,302.92023,457.53705C302.92023,457.5558,302.8694,457.67618,302.8105,457.80463C302.60443,458.2435,302.57233,458.31842,302.3877,458.78137C302.1629,459.35135,301.98895,459.8946,301.8605,460.42175C301.77222,460.79105,301.70532,460.97034,301.65982,460.97034C301.6491,460.97034,301.63037,460.93018,301.6197,460.88202C301.60938,460.83932,301.60394,460.8193,301.59888,460.8193C301.59476,460.8193,301.5909,460.83267,301.5849,460.85794C301.56082,460.94623,301.5822,461.18442,301.61432,461.18442C301.62772,461.18442,301.6625,461.1282,301.69193,461.05597C301.72406,460.9864,301.7642,460.89273,301.78293,460.8499C301.80164,460.8044,301.82574,460.7402,301.83643,460.70273C301.86588,460.61176,302.0853,460.106,302.23782,459.7795C302.40106,459.43164,302.40106,459.42896,302.62585,458.89642C302.89346,458.26224,303.08612,457.8635,303.2199,457.67352L303.335,457.51028L303.34302,457.60928C303.35373,457.73773,303.2547,458.03476,303.01923,458.57532C302.55627,459.64035,302.1656,460.6171,301.93008,461.29144C301.8311,461.5778,301.70532,461.9337,301.6491,462.08087C301.59558,462.22806,301.52066,462.4448,301.48322,462.56253C301.4035,462.81097,301.33615,462.9568,301.30084,462.9568C301.29587,462.9568,301.2915,462.95386,301.28784,462.94788C301.27786,462.93176,301.26944,462.92313,301.2621,462.92313C301.24387,462.92313,301.2324,462.9764,301.22095,463.1004C301.21292,463.18604,301.19153,463.30646,301.17548,463.36536C301.13266,463.5259,301.02026,463.88983,300.98816,463.96744C300.96405,464.029,300.84363,464.41968,300.76605,464.68994C300.7473,464.75687,300.70715,464.89334,300.67505,464.99503C300.5573,465.37234,300.60013,465.4232,301.10052,465.49542C301.55545,465.55966,301.56885,465.58374,301.54474,466.32233C301.52603,466.8923,301.51263,467.07962,301.4752,467.35257C301.43237,467.65497,301.33868,468.23566,301.3173,468.34268C301.30392,468.40155,301.27448,468.55142,301.2477,468.6772C301.22363,468.80295,301.1701,469.06787,301.1273,469.2659C301.08447,469.46393,301.03098,469.72885,301.00687,469.8546C300.9828,469.9804,300.95602,470.10617,300.95068,470.1356C300.94266,470.16504,300.92123,470.2801,300.89984,470.38983C300.80618,470.89557,300.7045,471.305,300.61887,471.51373C300.50378,471.79205,300.37802,472.12387,300.37802,472.1533C300.37802,472.16937,300.3673,472.20413,300.35394,472.2309C300.34055,472.25497,300.30844,472.37808,300.28168,472.50385C300.2255,472.77414,300.1773,472.89456,300.0462,473.1006C299.98224,473.20132,299.95746,473.24857,299.97354,473.24857C299.9844,473.24857,300.0138,473.22714,300.06226,473.18622C300.10385,473.15198,300.141,473.12668,300.15317,473.12668C300.1543,473.12668,300.1552,473.1269,300.1559,473.12735C300.16125,473.13538,300.12915,473.29327,300.08633,473.48328C299.98196,473.93283,299.9231,474.24326,299.9231,474.33957C299.9231,474.41382,299.89957,474.4729,299.8765,474.4729C299.87045,474.4729,299.86444,474.46887,299.8589,474.46C299.84818,474.44394,299.83478,474.35565,299.82944,474.26465C299.8241,474.171,299.81873,474.08804,299.81873,474.07465C299.81702,474.06003,299.81113,474.05344,299.80298,474.05344C299.7858,474.05344,299.75842,474.0828,299.73846,474.12817C299.7117,474.19775,299.62073,474.59647,299.5324,475.04605C299.42535,475.59464,299.0989,476.45093,298.91693,476.665L298.85004,476.7453L298.8634,476.6356C298.87143,476.57404,298.93832,476.34122,299.01328,476.11646C299.0855,475.88898,299.14172,475.69897,299.1337,475.69363C299.12973,475.689,299.12704,475.68503,299.12314,475.68503C299.11127,475.68503,299.0879,475.72183,298.98114,475.88898C298.80988,476.1566,298.73764,476.27432,298.66003,476.4108C298.62256,476.4777,298.4941,476.6998,298.37906,476.90585C298.11682,477.36612,297.86526,477.8478,297.78766,478.04315C297.75555,478.12344,297.64584,478.4499,297.54147,478.7657C297.4398,479.08145,297.34344,479.3758,297.3274,479.4213C297.1695,479.86282,296.80557,480.94125,296.736,481.18744C296.71725,481.2463,296.6905,481.34265,296.67178,481.40152C296.61557,481.57813,296.546,481.918,296.5567,481.96082C296.55884,481.97296,296.5612,481.98148,296.57217,481.98148C296.60233,481.98148,296.69766,481.91733,297.03302,481.68787C297.16003,481.59894,297.27252,481.52936,297.28824,481.52936C297.2891,481.52936,297.28964,481.52957,297.28992,481.52997C297.29794,481.538,297.0384,481.80292,296.91528,481.90997C296.89923,481.92334,296.79486,482.01434,296.68515,482.11066C296.57544,482.2043,296.40686,482.35684,296.31052,482.4505C296.21417,482.5415,296.10446,482.6405,296.067,482.66995C296.02417,482.70206,295.98938,482.76093,295.98135,482.8198C295.97333,482.87332,295.9225,483.04993,295.87164,483.21585C295.71912,483.6975,295.70575,483.88217,295.77798,484.3585C295.7994,484.4923,295.80206,484.73047,295.79138,485.073C295.77798,485.41553,295.78067,485.62155,295.80206,485.69382C295.88235,485.99622,296.2998,486.47787,296.7146,486.74817C296.98755,486.92746,297.31403,487.088,297.4023,487.088C297.46387,487.088,297.6485,487.02112,297.6485,486.997C297.6485,486.99167,297.60303,486.97028,297.5468,486.95422C297.4505,486.9221,297.07584,486.74548,296.96613,486.6786C296.6236,486.46716,296.46036,486.34943,296.3346,486.21295C296.19278,486.05774,296.01883,485.7634,295.98135,485.61087C295.97067,485.5734,295.95462,485.52255,295.9466,485.49847C295.93588,485.4717,295.9439,485.45566,295.968,485.45566C295.98938,485.45566,296.03488,485.5172,296.07236,485.5948C296.16333,485.79016,296.29446,485.98016,296.45502,486.14606C296.57538,486.27133,296.72955,486.38983,296.7706,486.38983C296.7743,486.38983,296.77704,486.3889,296.7788,486.3869C296.78418,486.38153,296.7788,486.3307,296.76544,486.27182C296.7524,486.21457,296.747,486.1649,296.74918,486.15732L296.75217,486.15732C296.77,486.16418,296.8654,486.22775,296.97684,486.31198C297.09726,486.40027,297.23907,486.4966,297.2926,486.52606C297.35605,486.56055,297.42798,486.57794,297.49274,486.57794C297.55362,486.57794,297.60812,486.56253,297.64316,486.5314C297.73682,486.4538,297.9937,486.0738,298.02048,485.9748C298.06598,485.81424,297.97766,485.6189,297.7957,485.46637C297.73148,485.41016,297.6833,485.35663,297.6913,485.34326C297.69934,485.33255,297.75824,485.32184,297.82245,485.32184C297.88666,485.32184,297.9482,485.30847,297.95892,485.29242C297.98837,485.24426,297.87863,485.12384,297.76627,485.08368C297.71005,485.0623,297.61908,485.0275,297.56824,485.00876L297.47458,484.9713L297.54416,484.93384C297.5816,484.9124,297.66724,484.89368,297.73148,484.89102C297.9482,484.8803,297.96426,484.86426,297.9402,484.69833C297.9295,484.61807,297.90274,484.51102,297.87863,484.46017C297.81976,484.3371,297.62442,484.21667,297.34076,484.13104C297.20697,484.09088,297.08923,484.0481,297.07584,484.03738C297.04605,484.0097,297.16696,483.98712,297.3012,483.98712C297.3357,483.98712,297.37106,483.9886,297.405,483.99188C297.49063,484.0026,297.6164,484.0347,297.68597,484.06415C297.7674,484.09824,297.8221,484.11697,297.86298,484.11697C297.9215,484.11697,297.95163,484.07855,297.99103,483.99188C298.02316,483.91965,298.08737,483.7457,298.13287,483.6012L298.2185,483.33627L298.3202,483.347C298.34607,483.3495,298.36615,483.35068,298.38065,483.35068C298.45892,483.35068,298.37292,483.31555,298.1516,483.26135C298.0151,483.22656,297.86795,483.18106,297.82245,483.16232C297.7764,483.14093,297.7627,483.13168,297.80185,483.13147L297.80484,483.13147C297.83,483.13162,297.8745,483.13498,297.94287,483.14093C298.05258,483.14896,298.21048,483.165,298.29074,483.17838C298.3456,483.18753,298.40918,483.19168,298.4576,483.19168C298.48007,483.19168,298.4993,483.1908,298.51285,483.1891C298.69482,483.1543,298.98114,482.7502,299.09622,482.36487C299.20325,482.00897,299.23538,481.9073,299.3558,481.57547C299.48425,481.21152,299.5645,481.01083,299.68494,480.75125C299.72775,480.6576,299.76254,480.57196,299.76254,480.56128C299.76254,480.53986,300.0034,479.96185,300.09436,479.76917C300.20593,479.5309,300.24536,479.42093,300.21637,479.4175L300.21338,479.4175C300.2006,479.41882,300.1778,479.43564,300.1452,479.4668C300.12128,479.48923,300.10443,479.501,300.09497,479.501C300.07053,479.501,300.09485,479.4228,300.17197,479.24734C300.24423,479.0841,300.64294,478.3295,300.89447,477.8826C301.08984,477.53473,301.29053,477.12796,301.2825,477.0905C301.28036,477.07846,301.27695,477.07092,301.26715,477.07092C301.24,477.07092,301.16403,477.129,300.93195,477.30994C300.55197,477.60696,300.43155,477.6926,300.27365,477.78625C300.1853,477.83676,300.1041,477.87772,300.08618,477.87772C300.0851,477.87772,300.08426,477.87756,300.08365,477.87726C300.05423,477.86386,301.33334,476.78543,301.55545,476.6356C301.6063,476.6008,301.70264,476.53656,301.7642,476.4911C301.82584,476.44772,301.88162,476.42184,301.91498,476.42184C301.9207,476.42184,301.92578,476.4226,301.93008,476.4242C301.93503,476.42584,301.94003,476.42667,301.9451,476.42667C301.97318,476.42667,302.004,476.40176,302.04248,476.35193C302.11206,476.26096,302.28064,476.09772,302.62585,475.77927C303.21188,475.2414,303.19318,475.2628,303.17444,475.20392C303.16104,475.16913,303.1771,475.11563,303.2226,475.0514C303.2574,474.99786,303.39117,474.74365,303.5223,474.48676C303.65076,474.22986,303.87286,473.80975,304.01202,473.55017C304.15118,473.2906,304.3278,472.95343,304.40002,472.79822C304.63016,472.31384,305.16537,471.41742,305.722,470.5905C306.17154,469.9215,306.201,469.88138,306.63983,469.30603C306.83786,469.04648,307.02786,468.79492,307.05728,468.74945C307.08942,468.70126,307.16702,468.61563,307.22855,468.55676L307.34094,468.4497L307.27136,468.58887C307.23392,468.66647,307.20178,468.74408,307.20178,468.76013C307.20178,468.81635,310.56552,472.18274,311.02847,472.59485C311.10873,472.6644,311.2934,472.84103,311.44055,472.98285C311.67874,473.21835,311.7162,473.2665,311.84998,473.53946C311.94632,473.7375,311.9945,473.87128,311.99716,473.94086C311.99716,473.99707,311.96237,474.1817,311.9169,474.35028C311.82056,474.7276,311.79916,474.89084,311.79916,475.2735C311.80182,475.73376,311.83127,476.4081,311.85803,476.57135C311.8714,476.65164,311.89014,476.83362,311.89816,476.97275C311.9062,477.1119,311.91956,477.30994,311.9276,477.40894C311.93564,477.50797,311.94632,477.6364,311.9517,477.68994C311.95972,477.78357,311.99716,478.08063,312.08548,478.7523C312.12027,479.02792,312.13367,479.17242,312.16577,479.71564C312.1738,479.8334,312.18716,480.00467,312.1952,480.09564C312.24603,480.59607,312.26477,481.2169,312.23535,481.439C312.18985,481.79224,312.15237,482.18826,312.1256,482.65924C312.10956,482.9081,312.0935,483.16232,312.08548,483.2212C312.03464,483.66275,312.02127,483.85007,312.0159,484.12567C312.00787,484.51102,311.93564,484.98468,311.7724,485.72327C311.759,485.79016,311.74564,486.03903,311.7483,486.2772C311.7483,486.7562,311.77774,486.8873,311.89014,486.91138C311.92493,486.91943,312.0293,486.9435,312.1256,486.9649C312.22195,486.98633,312.4146,487.01306,312.55377,487.02112C312.69293,487.02914,312.86688,487.0425,312.93912,487.05054C313.0333,487.06155,313.1545,487.0666,313.2749,487.0666C313.47604,487.0666,313.67496,487.05258,313.7419,487.02914C313.8222,486.9997,313.86502,486.95956,313.92923,486.84448C313.9881,486.74817,314.0363,486.69733,314.07642,486.69196C314.08035,486.69135,314.08447,486.69104,314.08884,486.69104C314.16153,486.69104,314.2949,486.77646,314.5474,486.98096C314.65176,487.06393,314.77484,487.1549,314.82034,487.179C314.94775,487.244,316.1564,487.33173,316.91708,487.33173C316.9393,487.33173,316.96112,487.33167,316.98254,487.3315C317.34915,487.32886,318.2911,487.2994,318.3232,487.2887C318.35266,487.28067,318.34998,486.898,318.32056,486.7749C318.30182,486.69464,318.20816,486.65448,317.39734,486.38153C316.89807,486.21332,316.6824,486.14923,316.4951,486.14923C316.40228,486.14923,316.31644,486.16495,316.2065,486.19156C316.08746,486.21973,316.00763,486.2334,315.96725,486.2334C315.8888,486.2334,315.95975,486.1817,316.18243,486.0845C316.2975,486.03366,316.3965,485.98016,316.40186,485.96677C316.4072,485.95337,316.3055,485.83298,316.17438,485.70184C315.5937,485.11578,315.25653,484.7251,315.25653,484.64484C315.25653,484.62073,315.18427,484.5164,315.03174,484.31836L314.92737,484.18457L315.05585,484.16046C315.0923,484.15427,315.1182,484.14987,315.13983,484.14987C315.19284,484.14987,315.2204,484.1763,315.3154,484.26752L315.44653,484.39862L315.43048,484.3023C315.40906,484.1819,315.45456,484.12836,315.62045,484.08823C315.73285,484.05878,315.76495,484.02936,315.7141,483.9999C315.67935,483.97852,315.66595,483.83398,315.6044,482.94022C315.53217,481.8725,315.5054,481.32928,315.4572,479.95648C315.45187,479.76382,315.43314,479.2286,315.41443,478.7657C315.37427,477.6605,315.3957,476.53122,315.46527,475.79532C315.64456,473.93015,315.65524,473.78833,315.64722,472.70456L315.64188,471.7947L315.56696,471.66895C315.5268,471.59668,315.44116,471.4843,315.37964,471.41473C315.18427,471.18994,315.08258,471.05347,314.83374,470.68152C314.37344,469.9911,313.99615,469.3141,313.39938,468.10184C313.0435,467.38202,312.82672,466.97525,312.428,466.28217C312.3049,466.06808,311.99716,465.4232,311.89816,465.17966C311.85803,465.07532,311.85803,465.0646,311.89816,465.00037C311.92752,464.95486,311.944,464.93433,311.95996,464.93433C311.97308,464.93433,311.98587,464.94824,312.0052,464.9736C312.01416,464.9871,312.02133,464.99454,312.02783,464.99454C312.04065,464.99454,312.05075,464.96533,312.06674,464.896C312.08548,464.8291,312.10956,464.7649,312.1256,464.75687C312.1925,464.7167,312.139,464.35278,312.05338,464.2618C312.04315,464.25073,312.0359,464.244,312.03128,464.24255L312.02817,464.24255C312.02216,464.24527,312.02505,464.26746,312.03464,464.3153C312.0441,464.36456,312.04385,464.388,312.03592,464.388C312.0214,464.388,311.9812,464.3099,311.9276,464.16815C311.88745,464.06378,311.81522,463.8845,311.76437,463.76672C311.63858,463.46436,311.4727,462.95593,311.36298,462.52777C311.30945,462.32706,311.22382,462.01666,311.17297,461.84003C311.11945,461.66342,311.05524,461.4333,311.0258,461.3316C310.99902,461.22723,310.9107,460.9382,310.82776,460.68936C310.7448,460.4378,310.66187,460.17288,310.64044,460.10065C310.58426,459.8919,310.41565,459.30585,310.38892,459.21756C310.37552,459.17206,310.32468,458.99277,310.27652,458.81616C310.23102,458.63953,310.1561,458.37463,310.11328,458.22745C310.03836,457.9732,309.96878,457.72168,309.81088,457.14368C309.744,456.89478,309.744,456.87872,309.72794,455.5381C309.71454,454.4195,309.71722,454.17865,309.74667,454.1412C309.78146,454.0984,309.87244,454.09302,310.69397,454.07965C311.19437,454.07162,311.68945,454.0609,311.79114,454.0529C312.10956,454.03415,312.98996,454.01276,313.71783,454.01007C314.1005,454.01007,314.4805,453.9967,314.56076,453.98065C314.64105,453.96725,314.80963,453.9405,314.93542,453.92175C315.583,453.82007,316.11554,453.68896,316.23593,453.59796C316.28677,453.55783,316.34567,453.46954,316.39383,453.35178C316.43665,453.25278,316.53564,453.03333,316.61325,452.86743L316.7551,452.56503L317.06818,452.58112C317.3679,452.59717,317.41605,452.6052,317.57126,452.6801C317.61407,452.69885,317.81744,452.70953,318.15195,452.70953C318.78348,452.70953,318.88785,452.7015,318.92532,452.65604C318.95474,452.62125,318.94672,452.49548,318.90927,452.39914C318.8932,452.36435,318.9039,452.35364,318.95743,452.35364C319.0725,452.35364,319.45248,452.01648,319.50867,451.86392C319.52475,451.8211,319.53812,451.73816,319.53812,451.6766C319.53812,451.5547,319.55258,451.50647,319.60486,451.50647C319.62372,451.50647,319.6475,451.51273,319.67728,451.52408C319.72543,451.54282,319.76825,451.56152,319.77094,451.5642C319.7736,451.5669,319.7629,451.61505,319.74686,451.67395C319.73077,451.73013,319.71472,451.78363,319.71207,451.7917C319.65585,452.00043,319.63177,452.04053,319.48996,452.169L319.3374,452.30814L319.4311,452.28943C319.4953,452.27872,319.5729,452.2252,319.67993,452.11816C319.83514,451.96564,320.04657,451.6445,320.04657,451.5642C320.04657,451.54016,320.09473,451.5,320.16162,451.47058C320.32486,451.39832,320.43726,451.26987,320.51486,451.0558C320.5523,450.95142,320.61118,450.81763,320.6433,450.7534L320.70218,450.641L320.94836,450.641C320.98566,450.641,321.01764,450.64142,321.04514,450.64142C321.22662,450.64142,321.21182,450.62323,321.23737,450.34665C321.2588,450.13794,321.31766,450.00143,321.4033,449.96933C321.43808,449.95596,321.85284,449.94525,322.32916,449.94525L323.25238,449.94525C323.30322,449.94525,323.31125,449.93185,323.31125,449.8489L323.31125,449.7499L323.41028,449.76596C323.4438,449.77176,323.47858,449.77444,323.51245,449.77444C323.61917,449.77444,323.71707,449.7477,323.7394,449.7071C323.7528,449.68033,323.7555,449.61075,323.74744,449.5492C323.73407,449.45554,323.72336,449.43683,323.6752,449.43683C323.6431,449.43683,323.5949,449.41003,323.56815,449.3806C323.5402,449.34665,323.5167,449.33356,323.47543,449.33356C323.46143,449.33356,323.44534,449.33508,323.42633,449.3378C323.3728,449.3485,323.31125,449.3726,323.28452,449.39667C323.25232,449.42657,323.14697,449.43475,322.58957,449.43475C322.49844,449.43475,322.39523,449.4345,322.27832,449.43414C321.49426,449.42877,321.3123,449.42075,321.2909,449.3913C321.26947,449.36188,321.09018,449.35385,320.30078,449.35385C320.0104,449.35324,319.793,449.3522,319.62897,449.3522C319.07956,449.3522,319.129,449.36386,319.04037,449.44217C318.9864,449.48917,318.9585,449.509,318.93378,449.509C318.9205,449.509,318.90814,449.5033,318.8932,449.493C318.87485,449.4822,318.86087,449.47665,318.84702,449.47665C318.8265,449.47665,318.8063,449.48886,318.77277,449.5144L318.70587,449.56793L318.60956,449.50104C318.56357,449.46884,318.51166,449.44852,318.48438,449.44852C318.47992,449.44852,318.4761,449.44907,318.47308,449.4502C318.45435,449.45822,318.4249,449.46356,318.41153,449.46356C318.39813,449.46356,318.38745,449.47427,318.38745,449.49033C318.38745,449.5037,318.41153,449.5171,318.4383,449.5171C318.4677,449.5171,318.52658,449.54654,318.56674,449.5813C318.63095,449.6375,318.6363,449.65356,318.60687,449.69638C318.58813,449.72314,318.55334,449.77667,318.52658,449.8168C318.4918,449.87567,318.4597,449.89172,318.38745,449.89172C318.32056,449.89172,318.2804,449.91046,318.23758,449.964L318.1787,450.0389L317.52576,450.04156L316.8755,450.04425L316.87283,450.20215C316.87064,450.33096,316.87024,450.35468,316.82803,450.35468C316.8185,450.35468,316.80685,450.3535,316.79254,450.352C316.74973,450.34665,316.67212,450.33325,316.62128,450.3199C316.46606,450.27975,315.98706,450.2182,315.67133,450.19946C315.58298,450.19394,315.51834,450.19064,315.46603,450.19064C315.36627,450.19064,315.31128,450.20267,315.22174,450.23425C315.15274,450.25873,315.1143,450.27396,315.0902,450.27396C315.0564,450.27396,315.05096,450.24393,315.02908,450.16736C315.0237,450.14862,314.97287,450.12186,314.9167,450.1058C314.88535,450.09622,314.8608,450.09033,314.83264,450.09033C314.77423,450.09033,314.70032,450.1157,314.51794,450.1861C314.03894,450.3734,313.80347,450.45905,313.71783,450.48044C313.67502,450.49115,313.60812,450.5072,313.57065,450.5179C313.55576,450.5225,313.54565,450.5246,313.53973,450.5246C313.4902,450.5246,313.73157,450.3782,313.91318,450.30652C314.02557,450.26102,314.11923,450.21017,314.12457,450.19412C314.13718,450.15845,314.00174,450.12772,313.8653,450.12772C313.82767,450.12772,313.79,450.13004,313.7553,450.13525C313.67502,450.14594,313.52783,450.1861,313.42346,450.22623C313.12363,450.34024,312.96048,450.3959,312.9245,450.3959C312.89883,450.3959,312.93787,450.36755,313.03815,450.31186C313.17194,450.23694,313.09967,450.2182,312.69025,450.2182L312.32632,450.2182L312.11224,450.1192C311.9945,450.063,311.85803,450.0175,311.8045,450.01483C311.74295,450.01483,311.6145,450.0603,311.41647,450.15665C311.15692,450.2824,310.94284,450.3734,310.90268,450.3734C310.8572,450.3734,310.98297,450.27707,311.1141,450.21017C311.19974,450.16736,311.2693,450.12186,311.2693,450.1085C311.2693,450.07635,311.1783,450.04694,310.78763,449.9506C310.61905,449.90778,310.38892,449.8275,310.27383,449.774C310.16144,449.72046,310.05707,449.67764,310.04102,449.67764C310.02496,449.67764,309.98215,449.7258,309.94736,449.782C309.90454,449.8489,309.82693,449.9158,309.73865,449.964C309.63696,450.0175,309.58878,450.063,309.57004,450.1192C309.52457,450.253,309.5085,450.26636,309.35864,450.26636C309.18204,450.26636,309.0964,450.32526,309.0509,450.48578C309.00006,450.65704,308.92245,450.76678,308.8288,450.7989C308.77628,450.81784,308.73453,450.82846,308.69543,450.82846C308.61298,450.82846,308.5421,450.78125,308.406,450.6651C308.27637,450.55322,308.21628,450.48615,308.2366,450.48334L308.2397,450.48334C308.25235,450.48465,308.28244,450.49997,308.33105,450.53128C308.37924,450.56073,308.4702,450.61157,308.53177,450.64368C308.58832,450.67413,308.61737,450.6881,308.6419,450.6881C308.66266,450.6881,308.68018,450.67813,308.70837,450.65973C308.75656,450.6303,308.78064,450.58215,308.794,450.50186C308.80203,450.43762,308.81808,450.3654,308.82346,450.3413C308.8395,450.29047,308.95993,450.24762,309.23557,450.20215L309.4095,450.1727L309.43356,450.04962L309.45767,449.9265L309.63428,449.91046C309.7761,449.8971,309.8189,449.88104,309.85638,449.83286C309.99554,449.6482,310.02765,449.6134,310.1079,449.5813C310.14618,449.56512,310.17798,449.55704,310.21667,449.55704C310.2483,449.55704,310.28455,449.56244,310.3327,449.57327C310.3841,449.58377,310.41815,449.5897,310.44357,449.5897C310.47635,449.5897,310.49472,449.57983,310.51736,449.55722C310.5869,449.49835,310.65918,449.22272,310.67523,448.96317C310.68042,448.84604,310.6958,448.7542,310.70892,448.7542C310.7093,448.7542,310.70966,448.75427,310.71002,448.75443C310.71054,448.75482,310.7111,448.755,310.71167,448.755C310.72256,448.755,310.74,448.68265,310.75015,448.58853C310.7662,448.41992,310.77692,448.39853,310.8786,448.30756C311.1676,448.0453,311.13818,448.1015,311.22113,447.60376C311.2613,447.3522,311.31213,447.0445,311.33084,446.9187C311.37366,446.65643,311.38705,446.627,311.45663,446.627C311.55295,446.627,311.79114,446.50125,311.86606,446.41562C311.91956,446.35138,311.9383,446.29788,311.94098,446.20422C311.95435,445.80817,311.90887,445.67438,311.67072,445.40408C311.45663,445.16058,311.04987,444.6896,310.75818,444.3417L310.55212,444.0982L310.70468,444.07947C310.78763,444.0688,310.87057,444.0554,310.892,444.0527C310.9107,444.04736,310.73947,443.93228,310.50665,443.79584L310.08652,443.54428L309.60217,443.4961C309.22162,443.4578,309.03424,443.43777,308.9022,443.43777 Z"/> </g> <g style="fill:rgb(0,0,0); fill-opacity:1.0; stroke-linejoin: miter"> <path d="M313.4074,450.05228C313.27896,450.05228,313.27362,450.05496,313.29236,450.11115C313.30038,450.14594,313.31375,450.17538,313.31644,450.18073C313.31693,450.1812,313.31787,450.18146,313.3192,450.18146C313.3468,450.18146,313.54388,450.081,313.54388,450.06567C313.54388,450.05765,313.48236,450.05228,313.4074,450.05228 Z"/> </g> <g style="fill:rgb(0,0,0); fill-opacity:1.0; stroke-linejoin: miter"> <path d="M331.4717,484.36133C331.41522,484.36133,331.34586,484.3668,331.3205,484.37723C331.2884,484.38794,331.26965,484.4923,331.29642,484.4923C331.32318,484.4923,331.5533,484.38525,331.5533,484.3719C331.5533,484.36478,331.5166,484.36133,331.4717,484.36133 Z"/> </g> <g style="fill:rgb(0,0,0); fill-opacity:1.0; stroke-linejoin: miter"> <path d="M298.1451,484.95688C298.13626,484.95688,298.1302,484.98044,298.1302,485.03284C298.13287,485.15863,298.23187,485.83563,298.2533,485.85437L298.25607,485.85437C298.27176,485.83685,298.24292,485.4853,298.19708,485.1265C298.18207,485.0214,298.1598,484.95688,298.1451,484.95688 Z"/> </g> <g style="fill:rgb(0,0,0); fill-opacity:1.0; stroke-linejoin: miter"> <path d="M318.47842,486.6331C318.45703,486.6331,318.44632,486.64648,318.45435,486.66254C318.46506,486.6786,318.48376,486.72406,318.49448,486.76154C318.5041,486.79163,318.5094,486.80762,318.51254,486.80762C318.51642,486.80762,318.5171,486.78363,318.51855,486.73212C318.52124,486.65985,318.51053,486.6331,318.47842,486.6331 Z"/> </g> <g style="fill:rgb(0,0,0); fill-opacity:1.0; stroke-linejoin: miter"> <path d="M318.55334,487.04785L318.54532,487.14154C318.5373,487.2111,318.51855,487.23785,318.4677,487.25125C318.40616,487.2673,318.40884,487.26996,318.48914,487.27264C318.49194,487.2727,318.49472,487.27277,318.49744,487.27277C318.59225,487.27277,318.61655,487.22687,318.5801,487.1228L318.55334,487.04785 Z"/> </g> </g> <g style="fill:rgb(0,0,0); fill-opacity:1.0; stroke-linejoin: miter"> <path d="M309.92194,443.55072Q309.79144,443.55585,309.5118,443.6005L311.30716,446.48672Q311.3101,446.49127,311.33572,446.49142Q311.70294,446.43457,311.76804,446.38803Q311.889,446.3303,311.95782,446.15012Q311.9926,446.08286,312.01718,445.9202Q312.0317,445.61792,312.02313,445.5579Q312.01642,445.3977,311.92188,445.1336Q311.8901,445.06686,311.8216,444.98474L311.66208,444.83163L311.3616,444.39288Q311.3577,444.38156,311.27737,444.3322L311.18277,444.2414Q311.07007,444.02924,310.9838,443.9526L310.78778,443.8382L310.65387,443.73645Q310.61566,443.71262,310.5731,443.69672Q310.07758,443.53708,309.92288,443.5507"/> </g> <g style="fill:rgb(0,0,0); fill-opacity:1.0; stroke-linejoin: miter"> <path d="M308.08905,443.60706L307.7686,443.72552L307.7686,443.72552L307.3731,443.98718L307.23407,444.15796Q307.2114,444.1923,307.18774,444.25397L307.11725,444.4689L306.99457,444.785Q306.9212,445.0257,306.8925,445.17065L308.49283,443.87115Q308.34048,443.7136,308.25772,443.6739L308.08905,443.60706 Z"/> </g> </g> </svg>