<svg xmlns="http://www.w3.org/2000/svg" width="600" height="976" viewBox="295.7358703613281 443.43701171875 35.817108154296875 43.894989013671875">
  <path d="M306.071 446.37h-.001.001zM307.205 445.622a.52.52 0 01.256.058c.073.045.156.166.134.19a.007.007 0 01-.004 0c-.017 0-.068-.035-.122-.083-.09-.083-.125-.097-.232-.097-.113 0-.137.011-.236.118-.094.094-.123.155-.174.34-.11.401-.085.693.072.88.087.1.108.146.062.146a.137.137 0 01-.03-.004c-.074-.021-.115-.09-.197-.342-.086-.26-.08-.372.04-.744.096-.287.155-.38.278-.436a.388.388 0 01.153-.026zm12.788 5.1c.013 0 .019.018.01.04-.01.02-.02.04-.026.04-.005 0-.01-.02-.01-.04 0-.022.01-.04.026-.04zm-.048.133c.016 0 .021.027.01.059a.6.6 0 00-.015.102c-.002.009-.004.013-.007.013-.005 0-.012-.012-.02-.035-.027-.064-.011-.139.032-.139zm.214-.134c.056 0 .11.024.16.073.08.077.102.227.046.331-.043.083-.22.236-.27.239-.07 0-.06-.07.013-.091l.059-.02-.062-.029c-.034-.018-.056-.045-.045-.07.008-.018.013-.125.013-.235v-.198zm-.372.209l.059.142c.053.134.053.152.019.243-.033.083-.054.102-.113.102a.243.243 0 01-.118-.035c-.045-.032-.045-.04 0-.152a1.95 1.95 0 01.102-.212l.051-.088zm-16.318-2.807l.067.019c.037.008.19.101.34.208.318.225.856.704 1.407 1.255.212.212.398.38.42.38a.078.078 0 01.043-.01c.066 0 .173.05.27.133.107.089.147.105.252.105.177 0 .468.126 1.362.58.937.477 1.15.597 1.148.65-.003.046-.002.065.023.065a.316.316 0 00.081-.021.78.78 0 01.234-.057c.06 0 .104.023.162.07l.102.08.39-.013c.763-.032 1.047-.046 2.168-.11a39.843 39.843 0 001.566-.11c.045-.005.19-.01.32-.013.161-.003.293-.021.397-.056a.523.523 0 01.158-.04c.033 0 .064.01.112.027.05.017.08.026.114.026a.506.506 0 00.16-.04c.087-.03.195-.064.237-.075.046-.013.182-.053.308-.093l.308-.094c.045-.01.243-.072.441-.134l.362-.112.136.045.14.046.221-.113c.123-.061.3-.166.394-.23.144-.102.211-.128.479-.184a3.783 3.783 0 00.359-.092c.031 0 .042.043.02.102-.029.08-.047.091-.444.193-.179.045-.275.094-.521.257a9.02 9.02 0 01-.52.318l-.219.12-.019-.122c-.012-.084-.02-.11-.045-.11a.088.088 0 00-.027.005c-.03.008-.217.064-.42.12l-.808.239c-.371.11-.458.131-.644.131a2.896 2.896 0 01-.082 0c-.178 0-.254.018-.527.107a2.775 2.775 0 01-.342.099c-.005-.005.027-.038.07-.07.045-.032.082-.07.082-.083 0-.015-.067-.023-.19-.023-.21 0-.582.022-1.054.066-.396.035-.8.07-.896.08-.359.03-.993.07-1.734.108a10.75 10.75 0 00-.889.07 7.68 7.68 0 01-.24.05c-.298.05-.557.115-.769.19a1.228 1.228 0 01-.243.067c-.016-.019-.024-.014.128-.115.067-.046.292-.169.503-.273.21-.107.38-.198.38-.206 0-.002-.005-.004-.013-.004a.185.185 0 00-.05.01.07.07 0 01-.015 0c-.056 0-.167-.054-.449-.226-.613-.369-1.21-.682-1.466-.768a.776.776 0 00-.263-.041c-.14 0-.323.025-.62.079-.278.05-.445.078-.514.078-.1 0 .008-.058.289-.19.206-.097.318-.164.313-.185-.005-.019-.054-.056-.107-.083a.252.252 0 00-.135-.03c-.098 0-.284.022-.719.075-.417.054-.819.107-.894.12-.072.014-.21.038-.307.054-.097.014-.33.054-.517.086-.163.027-.267.04-.322.04-.048 0-.059-.01-.039-.03.008-.007.158-.056.332-.104.28-.08.506-.13 1.014-.23.14-.027.83-.131 1.017-.152.147-.02.158-.038.08-.142-.152-.206-1.116-1.146-1.581-1.542-.073-.061-.16-.139-.198-.168l-.067-.06zm1.213 5.559c.103 0 .22.012.39.036.144.02.222.043.2.054-.057.032-1.004.111-1.301.111l-.055-.001c-.137-.008.184-.12.503-.174.096-.018.175-.026.263-.026zm-8.047 31.855c.043 0 .097 0 .165.002.18.002.388.018.46.037a.92.92 0 01.196.064c.062.034.08.075.031.075h-.032c-.118 0-.208.015-.208.038 0 .018.03.059.067.093.037.035.067.086.067.115 0 .075-.129.137-.278.137-.107 0-.142-.019-.319-.158-.206-.166-.313-.286-.313-.364 0-.03.022-.04.164-.04zm.115.62zm12.152-42.72c-.144 0-.223.025-.416.075l-.483.126h.003l-.237.088-.294.194h.003a5.033 5.033 0 00-.009.05 1.198 1.198 0 00-.029.24c.003.017-.072.13-.169.247-.278.342-.623.877-.757 1.17-.062.133-.064.162-.048.406.016.23.013.265-.03.318-.058.067-.364.23-.423.23-.006 0-.01-.002-.01-.005-.005-.013.01-.064.035-.11.024-.048.04-.09.035-.096h-.003a.672.672 0 00-.126.115l-.12.12-.188-.015-.36-.038a1.893 1.893 0 00-.309-.005c-.203.021-.064.053.308.07.169.007.343.029.385.045l.078.03-.086.072c-.072.058-.085.085-.07.136.041.123.239.45.418.68.471.615.653.934.843 1.469.019.054.024.08.018.08-.015 0-.104-.161-.253-.455a4.367 4.367 0 00-.33-.562 20.353 20.353 0 01-.313-.441c-.307-.455-.532-.771-.586-.82-.04-.037-.101-.047-.3-.047h-.074c-.284 0-.306.02-.388.216-.22.517-.236.533-.61.661-.113.04-.233.083-.265.097-.032.01-.18.048-.327.08-.89.195-1.126.284-1.322.498-.211.233-.559.974-.762 1.63l-.126.387a8.847 8.847 0 00-.185.95c-.067.57-.064.701.022 1.004.045.155.13.468.19.696a136.39 136.39 0 00.765 2.804c.05.198.214.704.332 1.014l.08.222-.072.006c-.04 0-.105 0-.145-.003a.333.333 0 00-.026-.001c-.043 0-.049.016-.049.084 0 .048.024.281.057.516.05.413.05.683-.006.683-.013 0-.024-.008-.024-.022 0-.04-.056-.369-.07-.417-.006-.02-.014-.031-.024-.031-.006 0-.012.003-.018.01-.038.037-.062.907-.03.99.005.012.01.019.017.019.024 0 .07-.084.197-.34.107-.212.255-.477.33-.59.136-.207.333-.436.369-.436.003 0 .005.002.005.006 0 .019-.05.14-.11.268-.206.438-.238.513-.422.976a12.59 12.59 0 00-.527 1.64c-.089.37-.156.55-.201.55-.01 0-.03-.04-.04-.089-.01-.043-.016-.063-.021-.063-.004 0-.008.014-.014.039-.024.088-.003.326.03.326.013 0 .048-.056.077-.128.032-.07.072-.163.09-.206.02-.046.044-.11.054-.147.03-.091.25-.597.402-.923.163-.348.163-.351.388-.884.267-.634.46-1.033.594-1.222l.115-.164.008.1c.01.128-.088.425-.324.965a42.896 42.896 0 00-1.089 2.716c-.099.287-.225.643-.28.79-.054.147-.13.364-.167.482-.08.248-.147.394-.182.394-.005 0-.01-.003-.013-.01-.01-.015-.019-.024-.026-.024-.018 0-.03.053-.041.177-.008.086-.03.206-.046.265-.042.16-.155.525-.187.602-.024.062-.144.453-.222.723-.019.067-.059.203-.091.305-.118.377-.075.428.426.5.454.065.468.089.444.827-.019.57-.032.758-.07 1.03-.043.303-.136.884-.158.99l-.07.335c-.023.126-.077.39-.12.589a30.96 30.96 0 00-.12.589l-.056.28c-.008.03-.03.145-.051.255-.094.506-.195.915-.281 1.124a7.09 7.09 0 00-.241.64c0 .015-.01.05-.024.077a1.883 1.883 0 00-.072.273c-.056.27-.105.39-.236.597-.064.1-.089.148-.072.148.01 0 .04-.022.088-.063a.289.289 0 01.091-.06l.003.001c.005.008-.027.166-.07.356-.104.45-.163.76-.163.857 0 .074-.023.133-.046.133-.007 0-.013-.004-.018-.013a.731.731 0 01-.03-.195l-.01-.19c-.002-.015-.008-.022-.016-.022-.017 0-.045.03-.065.075-.026.07-.117.468-.206.918-.107.549-.433 1.405-.615 1.619l-.067.08.013-.11c.008-.061.075-.294.15-.519.073-.227.129-.417.12-.422-.003-.005-.006-.009-.01-.009-.012 0-.035.037-.142.204-.171.268-.243.385-.321.522-.037.067-.166.289-.28.495-.263.46-.515.942-.592 1.137-.032.08-.142.407-.247.723-.101.315-.198.61-.214.655a52.81 52.81 0 00-.591 1.766c-.019.06-.046.156-.064.215-.056.176-.126.516-.115.559.002.012.004.02.015.02.03 0 .126-.064.461-.293a1.569 1.569 0 01.257-.158c.008.008-.252.273-.375.38l-.23.2c-.11.094-.278.247-.374.34-.097.091-.207.19-.244.22a.236.236 0 00-.086.15c-.008.053-.058.23-.11.396-.152.481-.165.666-.093 1.142.021.134.024.372.013.715-.013.343-.01.549.011.62.08.303.498.785.913 1.055.273.18.599.34.687.34.062 0 .247-.067.247-.091a.294.294 0 00-.102-.043 5.368 5.368 0 01-.58-.275c-.343-.212-.507-.33-.632-.466-.142-.155-.316-.45-.354-.602a3.24 3.24 0 00-.034-.113c-.011-.026-.003-.042.021-.042.021 0 .067.061.104.139.091.195.222.385.383.551.12.125.275.244.316.244.003 0 .006-.001.008-.003a.316.316 0 00-.014-.115.492.492 0 01-.016-.115h.003c.018.007.113.07.225.155.12.088.262.185.316.214a.429.429 0 00.2.052c.06 0 .115-.015.15-.047.094-.077.35-.457.377-.556.046-.16-.042-.356-.224-.509-.065-.056-.113-.11-.105-.123.008-.01.067-.021.131-.021.065 0 .126-.014.137-.03.03-.048-.08-.168-.193-.208-.056-.022-.147-.057-.198-.075l-.093-.038.07-.037a.508.508 0 01.186-.043c.217-.01.233-.027.21-.193a.99.99 0 00-.062-.238c-.06-.123-.255-.243-.538-.329a1.9 1.9 0 01-.265-.094c-.03-.027.091-.05.225-.05.035 0 .07.002.104.005.086.01.211.043.281.072a.523.523 0 00.177.053c.058 0 .089-.038.128-.125.032-.072.096-.246.142-.39l.086-.266.101.011a.664.664 0 00.06.004c.079 0-.007-.035-.228-.09a3.487 3.487 0 01-.33-.099c-.046-.021-.06-.03-.02-.03h.003a4.8 4.8 0 01.486.047 1.085 1.085 0 00.222.01c.182-.035.468-.439.583-.824.107-.356.14-.458.26-.79.128-.363.209-.564.329-.824.043-.093.078-.179.078-.19 0-.021.24-.6.331-.792.112-.238.151-.348.122-.351h-.003c-.012 0-.035.018-.068.049-.024.022-.04.034-.05.034-.024 0 0-.078.077-.254.072-.163.47-.918.722-1.364.196-.348.397-.755.389-.792-.003-.013-.006-.02-.016-.02-.027 0-.103.058-.335.239-.38.297-.5.383-.658.476a.908.908 0 01-.19.091c-.03-.013 1.25-1.092 1.471-1.241.051-.035.148-.1.21-.145.06-.043.117-.07.15-.07.006 0 .01.002.015.003l.015.003c.028 0 .059-.025.097-.075.07-.091.239-.254.584-.573.586-.538.567-.516.548-.575-.013-.035.003-.088.049-.153.034-.053.168-.307.3-.564.128-.257.35-.677.489-.937.14-.26.316-.597.388-.752.23-.484.765-1.38 1.322-2.207.45-.67.479-.71.918-1.285.198-.26.388-.511.417-.557.032-.048.11-.133.172-.192l.112-.107-.07.139a.91.91 0 00-.07.171c0 .056 3.365 3.423 3.827 3.835.08.07.265.246.413.388.238.235.275.284.409.556.096.199.144.332.147.402 0 .056-.035.24-.08.41-.096.377-.118.54-.118.923.003.46.032 1.134.059 1.297.013.08.032.263.04.402a23.453 23.453 0 00.054.717c.008.094.045.39.133 1.062.035.276.049.42.08.964l.03.38c.051.5.07 1.12.04 1.343-.045.353-.083.75-.11 1.22-.015.25-.031.503-.04.562-.05.442-.064.63-.07.905-.007.385-.08.859-.243 1.597a4.136 4.136 0 00-.024.554c0 .48.03.61.142.634l.236.054c.096.021.289.048.428.056s.313.022.385.03c.094.01.215.016.336.016.201 0 .4-.014.467-.038.08-.03.123-.07.187-.185.06-.096.107-.147.147-.152a.08.08 0 01.013-.001c.073 0 .206.085.458.29.105.083.228.174.273.198.128.065 1.336.153 2.097.153h.066a30.907 30.907 0 001.34-.043c.03-.008.027-.391-.002-.514-.02-.08-.113-.12-.924-.393-.499-.169-.715-.233-.902-.233a1.19 1.19 0 00-.288.043 1.298 1.298 0 01-.24.041c-.078 0-.007-.051.215-.149a.97.97 0 00.22-.117c.005-.014-.096-.134-.228-.265-.58-.586-.917-.977-.917-1.057 0-.024-.073-.129-.225-.327l-.105-.133.129-.025c.036-.006.062-.01.084-.01.053 0 .08.026.175.118l.132.13-.017-.096c-.02-.12.025-.174.19-.214.113-.03.145-.059.094-.088-.035-.021-.048-.166-.11-1.06a75.776 75.776 0 01-.147-2.984c-.005-.192-.024-.727-.043-1.19-.04-1.106-.018-2.235.051-2.97.18-1.866.19-2.008.182-3.091l-.005-.91-.075-.126a1.77 1.77 0 00-.187-.254 6.105 6.105 0 01-.546-.733c-.46-.69-.838-1.368-1.435-2.58a28.158 28.158 0 00-.971-1.82 14.47 14.47 0 01-.53-1.102c-.04-.105-.04-.115 0-.18.03-.045.046-.066.062-.066.013 0 .026.014.045.04.01.013.016.02.023.02.013 0 .023-.029.039-.098.018-.067.043-.131.059-.14.067-.04.013-.403-.073-.494a.075.075 0 00-.022-.02h-.003c-.006.003-.003.025.007.073.01.05.009.073 0 .073-.014 0-.054-.078-.107-.22-.04-.104-.113-.284-.164-.401-.125-.303-.291-.811-.401-1.24-.054-.2-.14-.51-.19-.687-.054-.177-.118-.407-.147-.508a13.168 13.168 0 00-.198-.643 28.29 28.29 0 01-.188-.588 59.521 59.521 0 00-.251-.883 28.957 28.957 0 01-.112-.402c-.046-.176-.12-.441-.164-.589a56.617 56.617 0 01-.302-1.083c-.067-.25-.067-.265-.083-1.606-.013-1.118-.01-1.36.019-1.397.034-.043.125-.048.947-.061.5-.008.995-.02 1.097-.027.319-.019 1.199-.04 1.927-.043.382 0 .762-.013.843-.03.08-.013.249-.04.374-.058.648-.102 1.18-.233 1.3-.324.052-.04.11-.128.159-.246.043-.1.142-.319.22-.485l.141-.302.313.016c.3.016.348.024.503.1.043.018.246.029.58.029.632 0 .737-.008.774-.054.03-.035.022-.16-.016-.257-.016-.035-.005-.045.048-.045.115 0 .495-.338.552-.49a.639.639 0 00.03-.187c0-.122.014-.17.066-.17.019 0 .042.006.072.017a.965.965 0 01.094.04.573.573 0 01-.024.11l-.035.118c-.056.208-.08.249-.222.377l-.153.14.094-.02c.064-.01.142-.064.249-.17.155-.153.367-.475.367-.555 0-.024.048-.064.115-.093.163-.073.275-.201.353-.415.037-.105.096-.238.128-.303l.06-.112H321.044c.182 0 .167-.018.192-.294.022-.21.08-.346.166-.378.035-.013.45-.024.926-.024h.923c.051 0 .06-.013.06-.096v-.1l.098.017a.604.604 0 00.102.008c.107 0 .205-.026.227-.067a.355.355 0 00.008-.158c-.013-.093-.024-.112-.072-.112-.032 0-.08-.027-.107-.056-.028-.034-.051-.047-.093-.047a.348.348 0 00-.19.063c-.033.03-.138.038-.695.038h-.312c-.784-.006-.966-.014-.987-.044-.022-.03-.2-.037-.99-.037l-.672-.002c-.55 0-.5.012-.589.09-.054.047-.082.067-.106.067-.014 0-.026-.006-.04-.016a.093.093 0 00-.047-.016c-.02 0-.04.012-.074.037l-.067.054-.096-.067a.27.27 0 00-.126-.052l-.01.001a.197.197 0 01-.062.014c-.014 0-.025.01-.025.026 0 .014.025.027.051.027.03 0 .089.03.129.064.064.056.07.073.04.115l-.08.12c-.035.06-.067.076-.14.076a.168.168 0 00-.15.072l-.058.075-.653.003-.65.002-.003.158c-.002.129-.003.153-.045.153a1.584 1.584 0 01-.207-.035 7.275 7.275 0 00-1.155-.13.63.63 0 00-.244.044c-.07.025-.108.04-.132.04-.034 0-.039-.03-.06-.107-.006-.018-.057-.045-.113-.061a.276.276 0 00-.084-.016c-.059 0-.133.026-.315.096-.48.187-.715.273-.8.294-.043.011-.11.027-.147.038a.122.122 0 01-.031.007c-.05 0 .192-.147.373-.218.113-.046.206-.097.212-.113.012-.036-.123-.066-.26-.066a.751.751 0 00-.11.007c-.08.01-.227.051-.332.091-.3.114-.463.17-.498.17-.026 0 .013-.028.113-.084.134-.075.062-.094-.348-.094h-.364l-.214-.099a1.139 1.139 0 00-.308-.104c-.061 0-.19.045-.388.142-.26.125-.473.216-.513.216-.046 0 .08-.096.211-.163.086-.043.155-.088.155-.101 0-.033-.09-.062-.481-.158a3.57 3.57 0 01-.514-.177 1.5 1.5 0 00-.233-.096c-.016 0-.059.048-.094.104a.588.588 0 01-.208.182c-.102.053-.15.099-.169.155-.045.134-.061.147-.211.147-.177 0-.263.06-.308.22-.05.171-.129.28-.222.313a.398.398 0 01-.134.03c-.082 0-.153-.048-.289-.164-.13-.112-.19-.179-.17-.182h.004a.322.322 0 01.091.048c.048.03.14.08.2.113.057.03.086.044.11.044.022 0 .04-.01.067-.028.049-.03.073-.078.086-.158.008-.064.024-.137.03-.16.015-.052.136-.094.412-.14l.173-.03.025-.122.024-.124.176-.016c.142-.013.185-.029.222-.077.14-.185.172-.22.252-.252a.264.264 0 01.109-.024c.031 0 .068.005.116.016.051.01.085.017.11.017.033 0 .052-.01.074-.033.07-.059.142-.334.158-.594.005-.117.02-.209.034-.209h.001l.002.001c.01 0 .028-.072.038-.166.016-.17.027-.19.129-.281.289-.263.26-.207.342-.704.04-.252.091-.56.11-.685.043-.263.056-.292.126-.292.096 0 .334-.126.41-.211a.3.3 0 00.074-.212c.013-.396-.032-.53-.27-.8-.214-.243-.621-.714-.913-1.062l-.206-.244.153-.019c.083-.01.166-.024.187-.026.019-.006-.153-.12-.385-.257l-.42-.252-.485-.048c-.38-.038-.568-.058-.7-.058z"></path>
  <path d="M313.407 450.052c-.128 0-.133.003-.115.06a.359.359 0 00.024.069h.003c.028 0 .225-.1.225-.115 0-.008-.062-.014-.137-.014zM331.472 484.361a.556.556 0 00-.151.016c-.033.01-.051.115-.025.115.027 0 .257-.107.257-.12 0-.007-.036-.01-.081-.01zM298.145 484.957c-.009 0-.015.023-.015.076.003.126.102.803.123.821h.003c.016-.017-.013-.369-.059-.727-.015-.106-.037-.17-.052-.17zM318.478 486.633c-.021 0-.032.013-.024.03.011.016.03.061.04.099.01.03.015.046.019.046.003 0 .004-.024.006-.076.002-.072-.008-.099-.04-.099zM318.553 487.048l-.008.094c-.008.07-.026.096-.077.11-.062.015-.06.018.021.02h.008c.095 0 .12-.045.083-.15l-.027-.074z"></path>
  <g>
    <path d="M309.922 443.55q-.13.006-.41.05l1.795 2.887q.003.004.029.004.367-.056.432-.103.121-.058.19-.238.035-.067.06-.23.014-.302.005-.362-.007-.16-.101-.424-.032-.067-.1-.15l-.16-.152-.3-.44q-.004-.01-.085-.06l-.094-.09q-.113-.213-.2-.29l-.195-.114-.134-.102q-.038-.023-.08-.04-.496-.159-.651-.145"></path>
  </g>
  <g>
    <path d="M308.09 443.607l-.321.119-.396.261-.139.171q-.023.034-.046.096l-.07.215-.123.316q-.074.24-.103.386l1.6-1.3q-.152-.157-.234-.197l-.169-.067z"></path>
  </g>
</svg>