<?xml version='1.0' encoding='utf-8'?>
<svg xmlns="http://www.w3.org/2000/svg" version="1.1" width="600px" height="976px" viewBox="0 0 600 976"> <g id="layer1"> <g style="fill:rgb(0,0,0); fill-opacity:1.0; stroke-linejoin: miter"> <path d="M83.17651,886.13904L83.17651,886.13904L96.94522,868.0819L96.860535,868.43274L91.55826,838.90784L92.37515,839.0722C87.81348,846.1132,83.331665,853.0443,82.16324,859.4918L82.16324,859.4918C81.00003,865.9097,83.1181,871.8906,85.29373,878.00494C85.36304,878.1995,85.29025,878.4163,85.117645,878.5296C84.94504,878.64294,84.717316,878.6237,84.56625,878.48285L84.56625,878.48285L76.37961,870.8518L77.10785,870.6721C76.098724,873.554,75.04489,876.58545,71.0199,878.64276L71.02945,878.6378L71.02725,878.6389L71.01758,878.64404C70.57965,878.8677,70.11246,879.0774,69.61282,879.27783L69.61282,879.27783C65.59735,880.88794,59.570007,881.8451,53.62375,882.7918L53.631226,882.7905L53.627716,882.79114C53.41922,882.82794,53.21344,882.71387,53.134308,882.51733C53.055176,882.321,53.1243,882.09607,53.30008,881.978L53.30008,881.978C58.767395,878.3073,64.07962,874.7268,66.28906,870.7295L66.28906,870.7295C68.47168,866.78094,67.642,862.3678,66.7551,857.74896L67.4603,858.0255L50.299896,870.6381C50.115234,870.77386,49.85788,870.7484,49.70352,870.5789C49.549133,870.4094,49.547516,870.15094,49.6998,869.9797L49.6998,869.9797C54.216522,864.89856,58.673096,859.87885,61.34323,852.3517L61.34323,852.3517C64.02252,844.79865,64.91211,834.70245,65.8056,824.5232L65.80563,824.52295L65.80594,824.5195L66.51221,824.9237L35.83087,846.792C35.63925,846.9285,35.374573,846.8936,35.225006,846.71185C35.07541,846.53015,35.09195,846.2638,35.262817,846.102L35.262817,846.102C44.236206,837.6043,53.14264,829.165,58.035614,821.17004L58.035614,821.17004C62.90988,813.2053,63.80829,805.6646,64.713135,798.0295L64.88577,798.438C57.134247,792.50604,49.24829,786.48486,46.31122,774.54974L46.31122,774.54974C43.392212,762.6882,45.377167,744.9984,47.340637,727.44025L47.381287,727.6823C37.81186,707.5472,28.181305,687.30005,27.627869,666.8559L27.627869,666.8559C27.074493,646.411,35.5997,625.8116,44.06967,605.32733L44.04663,605.5969C39.301178,584.51404,34.51306,563.2875,41.268738,542.1209L41.268738,542.1209C48.015594,520.9826,66.266754,499.94946,84.42136,479.0158L84.32242,479.40607C76.24118,442.87823,68.10614,406.16574,75.24701,380.94757L75.24701,380.94757C82.40814,355.6576,104.8757,341.99603,123.23801,334.1836L123.23801,334.1836C124.251465,333.75235,125.24158,333.34344,126.2319,332.94632L126.231964,332.9463C143.21515,326.1361,156.844,324.2293,170.42957,322.32733L170.3346,322.35147C179.29504,318.99655,188.53598,315.50748,194.55426,317.69L194.55426,317.69C200.62558,319.89185,203.28403,327.77966,205.8563,335.29752C205.9364,335.53162,205.81158,335.7863,205.57742,335.8664C205.34335,335.9465,205.08868,335.8216,205.00858,335.58752L205.00858,335.58752C202.37335,327.88574,199.82434,320.55426,194.24878,318.53223L194.24878,318.53223C188.61996,316.49097,179.77484,319.7736,170.64871,323.1905L170.55371,323.21463C156.97327,325.11597,143.43912,327.01157,126.56537,333.77783L126.56543,333.7778C125.585205,334.17093,124.59216,334.58105,123.588715,335.00793L123.588715,335.00793C105.281494,342.79703,83.15344,356.31396,76.10907,381.19165L76.10907,381.19165C69.044525,406.14026,77.09393,442.5849,85.197205,479.2125C85.22778,479.3509,85.1911,479.49567,85.09827,479.6028L85.09827,479.6028C66.90103,500.58554,48.800934,521.46857,42.122284,542.3933L42.122284,542.3933C35.452698,563.2903,40.165344,584.2733,44.920685,605.40015C44.94098,605.49023,44.932922,605.58435,44.897644,605.6697L44.897644,605.6697C36.40927,626.19855,27.976257,646.61316,28.52353,666.83167L28.52353,666.83167C29.070862,687.05066,38.60022,707.1188,48.19046,727.2977C48.226288,727.373,48.240356,727.4569,48.23108,727.5398L48.23108,727.5398C46.25952,745.1696,44.30951,762.6661,47.181274,774.3357L47.181274,774.3357C50.034943,785.9319,57.665405,791.7843,65.43021,797.72644C65.55585,797.8225,65.62143,797.9778,65.60281,798.1349L65.60281,798.1349C64.69855,805.76465,63.78778,813.48724,58.799744,821.6377L58.799744,821.6377C53.83078,829.75696,44.82083,838.28455,35.878876,846.75244L35.310852,846.06244L65.99216,824.19415C66.13455,824.0926,66.32297,824.0833,66.47473,824.17017C66.626465,824.257,66.713806,824.4242,66.698395,824.59845L66.698395,824.59845L66.69809,824.6019L66.69812,824.6017C65.808105,834.7413,64.91324,844.96765,62.187622,852.65125L62.187622,852.65125C59.452057,860.3628,54.880188,865.5005,50.369446,870.5749L49.76935,869.91626L66.92978,857.30365C67.05362,857.2126,67.215485,857.19147,67.35858,857.24756C67.50168,857.3036,67.60599,857.4292,67.63498,857.58014L67.63498,857.58014C68.50845,862.1291,69.43921,866.8825,67.07315,871.16296L67.07315,871.16296C64.73425,875.3944,59.189545,879.1032,53.79956,882.72186L53.471893,881.9088L53.475403,881.9082L53.48288,881.907C59.47113,880.9536,65.37903,880.01013,69.27936,878.4461L69.27936,878.4461C69.759674,878.25354,70.19791,878.0566,70.61011,877.84607L70.6004,877.8512L70.60263,877.8499L70.61218,877.845C74.29886,875.9607,75.25845,873.24274,76.2623,870.376C76.31229,870.2333,76.43091,870.12537,76.57779,870.0891C76.72464,870.05286,76.87985,870.0932,76.99051,870.19635L76.99051,870.19635L85.177155,877.8275L84.449646,878.3054C82.28815,872.2309,80.06897,866.0227,81.28165,859.33203L81.28165,859.33203C82.48898,852.6698,87.095856,845.57294,91.62317,838.58496C91.723114,838.43066,91.90726,838.3531,92.087524,838.3894C92.26776,838.4257,92.40756,838.56836,92.44003,838.7494L92.44003,838.7494L97.74234,868.27435C97.76456,868.39795,97.733826,868.5253,97.65762,868.6251L97.65762,868.6251L83.888885,886.68225C83.73889,886.8791,83.457825,886.917,83.26108,886.76685C83.06436,886.61676,83.02652,886.3358,83.17651,886.13904 Z"/> </g> <g style="fill:rgb(0,0,0); fill-opacity:1.0; stroke-linejoin: miter"> <path d="M105.34406,516.8581L105.34406,516.8581L110.19603,495.13913L110.6668,495.6835C109.495026,495.7716,108.36651,495.85742,107.35458,496.09177L107.35458,496.09177C105.58175,496.50238,104.242905,497.3437,103.77414,499.44205L103.77414,499.44205C102.99392,502.93454,104.57653,509.7959,106.217575,516.8543L105.34406,516.8581 M106.21844,517.0534C106.17286,517.25745,105.99223,517.40283,105.78319,517.40375C105.57414,517.4046,105.39226,517.2608,105.344925,517.0572L105.344925,517.0572C103.73301,510.12405,102.06267,502.9938,102.899765,499.2467L102.899765,499.2467C103.467926,496.70343,105.16795,495.6786,107.152435,495.21896L107.152435,495.21896C108.24346,494.96628,109.44339,494.877,110.59964,494.7901C110.741104,494.77948,110.87926,494.8365,110.97205,494.94376C111.06485,495.0511,111.10133,495.196,111.070404,495.33447L111.070404,495.33447L106.21844,517.0534 Z"/> </g> <g style="fill:rgb(0,0,0); fill-opacity:1.0; stroke-linejoin: miter"> <path d="M83.639854,886.01166L83.639854,886.01166L305.2105,885.6278L304.77228,886.1649L304.73233,885.96814L304.73236,885.96814C302.48828,874.9143,300.2437,863.87305,297.58807,853.2796L297.58807,853.2796C294.91663,842.6231,291.82785,832.4142,288.73553,822.1937C288.68402,822.0235,288.73807,821.839,288.87323,821.7235L288.87323,821.7235C290.47784,820.35175,291.91708,819.11804,291.32037,816.0333L291.32037,816.0333C290.89822,813.8513,289.4679,810.7755,287.95697,807.53455L287.95697,807.53455C287.22845,805.9719,286.4857,804.3788,285.84805,802.8588L285.84805,802.8588C283.89157,798.1948,282.92584,794.2223,281.45996,786.13165L281.45996,786.13165C279.99594,778.0516,278.01132,765.7543,279.594,754.68665L279.594,754.68665C280.88312,745.67175,284.5357,737.49756,287.74207,730.31616L287.74207,730.31616C288.47495,728.6748,289.18747,727.07874,289.84186,725.5408L289.84186,725.5408C293.353,717.289,295.29373,710.4822,295.57565,697.05664L295.57565,697.05664C295.85828,683.5969,294.47327,663.5162,293.0855,643.401C293.06848,643.1541,293.25476,642.94025,293.5016,642.9232C293.7484,642.9062,293.96228,643.09247,293.9793,643.3393L293.9793,643.3393C295.36584,663.43634,296.75507,683.5657,296.4714,697.0754L296.4714,697.0754C296.187,710.61816,294.22092,717.53754,290.66626,725.8916L290.66626,725.8916C290.00812,727.43835,289.29248,729.04126,288.56015,730.6815L288.56015,730.6815C285.34695,737.87805,281.74957,745.94165,280.4809,754.8134L280.4809,754.8134C278.92117,765.7209,280.87653,777.88654,282.3415,785.9719L282.3415,785.9719C283.80453,794.0466,284.75665,797.94104,286.67426,802.5122L286.67426,802.5122C287.30396,804.0133,288.03885,805.58984,288.76898,807.156L288.76898,807.156C290.25812,810.3501,291.75165,813.5459,292.19995,815.8632L292.19995,815.8632C292.8969,819.46606,291.09338,821.0042,289.45538,822.4045L289.59308,821.93427C292.68433,832.1513,295.77972,842.3815,298.4571,853.06165L298.4571,853.06165C301.11847,863.678,303.36713,874.7399,305.61038,885.7899L305.6104,885.79004L305.6503,885.98676C305.677,886.1183,305.64328,886.2549,305.55835,886.359C305.47345,886.46313,305.34637,886.52356,305.2121,886.5238L305.2121,886.5238L83.64142,886.9076C83.394005,886.908,83.19311,886.70776,83.192665,886.4604C83.192245,886.21295,83.39245,886.0121,83.639854,886.01166 Z"/> </g> <g style="fill:rgb(0,0,0); fill-opacity:1.0; stroke-linejoin: miter"> <path d="M293.5624,643.0911L293.5624,643.0911C326.45425,634.1031,359.3355,625.1176,385.7556,616.4445L385.7556,616.4445C412.17157,607.7728,432.13715,599.4107,452.11578,591.043C452.344,590.9475,452.60645,591.055,452.70203,591.2832C452.7976,591.5114,452.69006,591.77386,452.46188,591.86945L452.46188,591.86945C432.48206,600.2377,412.4884,608.6118,386.03506,617.2958L386.03506,617.2958C359.58795,625.97766,326.68457,634.9689,293.79858,643.95544C293.5599,644.0206,293.3136,643.88,293.24835,643.64136C293.18314,643.4028,293.32373,643.15643,293.5624,643.0911 Z"/> </g> <g style="fill:rgb(0,0,0); fill-opacity:1.0; stroke-linejoin: miter"> <path d="M452.3812,591.09143L452.3812,591.09143C455.87354,590.4759,459.30493,589.87134,463.9877,586.447L463.9877,586.447C465.66776,585.2184,467.50522,583.62976,469.45544,581.3818L469.45544,581.3818C472.9605,577.3418,476.83813,571.161,480.7856,561.1085L480.7856,561.1085C486.93732,545.44275,493.23944,520.4314,499.5527,495.37234L499.55975,495.34747L520.799,427.7849L520.89233,428.2177C513.4707,419.9121,506.08563,411.64984,498.03094,405.58936L498.03094,405.58936C489.98148,399.53284,481.24887,395.6649,472.4636,391.77563C472.23737,391.67548,472.13516,391.41092,472.23532,391.18472C472.33548,390.9585,472.60007,390.8563,472.82626,390.95645L472.82626,390.95645C481.5993,394.84027,490.42526,398.7456,498.5696,404.87347L498.5696,404.87347C506.7083,410.99713,514.15295,419.331,521.5604,427.62073C521.66565,427.73853,521.70105,427.90295,521.65375,428.05356L521.65375,428.05356L500.41446,495.61612L500.4215,495.59128C494.11475,520.6244,487.79736,545.70374,481.61954,561.43604L481.61954,561.43604C477.6454,571.5564,473.72107,577.8323,470.13217,581.96893L470.13217,581.96893C468.13388,584.2722,466.24603,585.90546,464.51657,587.17017L464.51657,587.17017C459.66644,590.7169,456.0713,591.35077,452.53668,591.9737C452.29303,592.0167,452.06067,591.854,452.01776,591.61035C451.97485,591.3667,452.1375,591.1344,452.3812,591.09143 Z"/> </g> <g style="fill:rgb(0,0,0); fill-opacity:1.0; stroke-linejoin: miter"> <path d="M205.68471,335.08936L205.68471,335.08936C214.89276,343.09512,224.15242,351.14362,229.08014,357.205L229.08014,357.205C234.05005,363.3183,234.63977,367.4394,235.21725,371.5073L234.94456,371.15613C247.86465,376.4855,260.97543,381.88184,265.3517,386.4109L265.3517,386.4109C269.37048,390.56995,266.24866,394.06808,264.16446,396.43976L264.16446,396.43976C263.82516,396.82584,263.51187,397.18243,263.24207,397.52032L263.24207,397.52032C261.32562,399.92035,261.64124,401.3253,261.957,402.82077L261.88104,402.6499L261.90237,402.67926L261.90234,402.67917C264.7617,406.6115,267.72424,410.6739,268.339,414.36877L268.339,414.36877C268.96307,418.12018,267.16907,421.4317,265.4823,424.57666L265.29822,423.96964C267.42294,425.10217,269.80994,426.34497,270.373,429.11444L270.373,429.11444C270.91492,431.7799,269.72504,435.81708,268.60327,439.6673L268.58636,439.36896C271.57263,446.4989,274.77704,454.02573,271.2335,459.1969L271.2335,459.1969C267.74136,464.29303,257.73273,466.93094,248.04807,469.5122L248.0115,469.52032C241.36517,470.70828,234.86053,471.87704,228.94943,479.44565L228.94943,479.44565C222.97966,487.08936,217.61774,501.23993,212.21889,515.5024C212.13132,515.73376,211.87274,515.85034,211.64136,515.76276C211.40999,515.6752,211.2934,515.41656,211.381,515.18524L211.381,515.18524C216.75648,500.98444,222.16884,486.672,228.24335,478.8942L228.24335,478.8942C234.3765,471.04126,241.186,469.8302,247.85388,468.63837L247.81732,468.64648C257.69046,466.01498,267.23972,463.44016,270.49445,458.69046L270.49445,458.69046C273.6977,454.0159,270.83795,447.06393,267.76,439.71503C267.7204,439.62045,267.71442,439.51517,267.74313,439.4167L267.74313,439.4167C268.89648,435.45804,269.9817,431.68665,269.49503,429.29297L269.49503,429.29297C269.02954,427.00342,267.08423,425.9369,264.8768,424.76025C264.77176,424.7043,264.69333,424.6088,264.6588,424.49493C264.62427,424.38104,264.63647,424.25812,264.69275,424.15323L264.69275,424.15323C266.41034,420.95084,268.0207,417.91504,267.4552,414.51584L267.4552,414.51584C266.88318,411.0777,264.08765,407.208,261.1777,403.2061L261.17767,403.20602L261.15634,403.1767C261.11932,403.1258,261.09344,403.06754,261.0804,403.00586L261.0804,403.00586C260.73608,401.37515,260.39166,399.6542,262.54193,396.9613L262.54193,396.9613C262.8273,396.60394,263.15576,396.23032,263.49146,395.84833L263.49146,395.84833C265.6776,393.36063,268.10254,390.54706,264.70743,387.03345L264.70743,387.03345C260.49875,382.67786,247.64615,377.36453,234.60294,371.98434C234.45627,371.92386,234.35252,371.79028,234.33023,371.6332L234.33023,371.6332C233.76366,367.64227,233.20935,363.70447,228.38496,357.77017L228.38496,357.77017C223.5184,351.784,214.33339,343.79602,205.09686,335.76544C204.91016,335.60312,204.8904,335.3202,205.05272,335.13348C205.21506,334.94678,205.498,334.92703,205.68471,335.08936 Z"/> </g> <g style="fill:rgb(0,0,0); fill-opacity:1.0; stroke-linejoin: miter"> <path d="M212.36446,514.6028L212.36446,514.6028L216.10817,525.1705L215.59335,524.8817C219.77823,523.998,224.00687,523.10394,228.09338,522.9239L228.0934,522.9239C231.89151,522.75665,235.59369,523.2042,239.05505,524.8632L239.05505,524.8632C246.19547,528.2855,252.20662,536.8355,258.12,545.2245L257.78818,545.03595C261.34238,545.30927,264.9604,545.5855,267.7535,546.36566L267.75354,546.36566C270.56897,547.1522,272.53537,548.44635,274.44867,549.703L274.01642,549.6701L274.05295,549.65344L274.05273,549.6535C275.4063,549.0337,276.85947,548.3669,278.36618,548.3005L278.36615,548.3005C278.65475,548.2878,278.9461,548.2969,279.24066,548.3323L279.2406,548.3323C281.06662,548.55206,282.91672,549.78925,284.63983,550.9303L284.00482,551.07935C284.52795,550.1759,285.1658,549.04065,286.8538,548.9663L286.85373,548.9663C287.13513,548.9539,287.43863,548.97107,287.77078,549.0202L287.77075,549.0202C289.92618,549.3387,293.52338,551.06726,297.00577,552.7348C297.04364,552.753,297.0788,552.77637,297.11017,552.80426L297.11017,552.80426C298.4056,553.95764,299.54773,554.94977,301.22122,554.87616L301.2212,554.87616C301.7474,554.85297,302.341,554.7233,303.0229,554.44147L303.0229,554.44147C304.30066,553.9133,305.84738,552.8723,307.5841,551.7007L307.5841,551.7007C309.60446,550.3377,311.8554,548.8172,314.08362,547.8962L314.0836,547.8962C314.29248,547.8099,314.50085,547.7289,314.70984,547.6534L314.70984,547.6534C316.11652,547.14514,317.49948,546.9048,318.8645,546.8446L318.8645,546.8446C321.71878,546.7189,324.49982,547.38464,327.208,548.03015L326.84866,548.09796C330.48785,545.57135,334.2472,542.94946,338.23688,542.4167L338.23685,542.4167C338.59375,542.369,338.95004,542.3382,339.30872,542.32245L339.30872,542.32245C342.96613,542.1614,346.753,543.5814,350.42752,544.9522L350.07538,544.9689C353.76782,543.1769,357.5617,541.3295,360.8083,540.9394L360.80826,540.9394C361.1027,540.904,361.39337,540.8805,361.67902,540.868L361.67896,540.868C364.57446,540.74036,367.02188,541.7336,369.3717,542.6812L368.8191,542.8678C371.30066,538.69244,373.8931,534.2858,378.8429,533.0474L378.84286,533.0474C379.80054,532.8078,380.83734,532.68915,381.90588,532.6421L381.90585,532.6421C383.5949,532.5677,385.3957,532.6706,387.1372,532.7697L387.1372,532.7697C388.82635,532.86584,390.4556,532.95807,391.91833,532.8937L391.91833,532.8937C392.91736,532.8496,393.82037,532.7329,394.59473,532.5025L394.59476,532.5025C396.64172,531.89355,397.90912,530.4608,399.2291,528.9537L399.2291,528.9537C400.33987,527.6854,401.50412,526.3443,403.2,525.65607L403.2,525.65607C404.07123,525.30255,405.062,525.1281,406.13034,525.0811L406.13034,525.0811C409.55148,524.93036,413.97336,526.08527,418.29614,527.2096L417.8363,527.92633C413.66077,522.80853,409.30734,517.5089,409.95334,510.76584L409.95334,510.76584C410.59247,504.09412,416.1422,496.0804,421.56665,488.22382L421.49823,488.57663C420.4896,484.09042,419.49585,479.6129,421.41266,462.09L421.41266,462.09C423.32715,444.58826,428.1501,414.02805,432.9702,383.48428C433.0088,383.2399,433.23816,383.07306,433.48254,383.1116C433.7269,383.1502,433.8938,383.37958,433.85522,383.62393L433.85522,383.62393C429.03302,414.18045,424.21494,444.71133,422.30328,462.1874L422.30328,462.1874C420.39423,479.63947,421.39063,484.0137,422.37234,488.38013C422.39978,488.50208,422.37494,488.62994,422.3039,488.73288L422.3039,488.73288C416.81772,496.67892,411.45667,504.46796,410.84518,510.85132L410.84518,510.85132C410.24048,517.1634,414.29657,522.1706,418.5305,527.3599C418.65295,527.5101,418.66507,527.722,418.56042,527.8851C418.45578,528.04816,418.25815,528.1254,418.07062,528.07666L418.07062,528.07666C413.6971,526.93915,409.42545,525.83276,406.16974,525.97614L406.16974,525.97614C405.16974,526.0202,404.28656,526.18207,403.5369,526.48627L403.5369,526.48627C402.07025,527.0814,401.0392,528.2469,399.90308,529.544L399.90308,529.544C398.60208,531.0294,397.17923,532.66833,394.85022,533.36115L394.85022,533.36115C393.97925,533.62036,392.99585,533.743,391.9578,533.78876L391.9578,533.78876C390.4411,533.8555,388.76422,533.75964,387.08627,533.6642L387.08627,533.6642C385.33563,533.5646,383.58035,533.46515,381.9453,533.5372L381.94525,533.5372C380.91412,533.5825,379.94098,533.69617,379.06033,533.9165L379.06033,533.9165C374.5354,535.0487,372.11743,539.0717,369.58923,543.32556C369.47632,543.51556,369.24164,543.5948,369.03662,543.5121L369.03662,543.5121C366.66534,542.55585,364.3917,541.6452,361.71838,541.76294L361.71832,541.763C361.45493,541.77454,361.18713,541.79626,360.9152,541.82886L360.91516,541.82886C357.85083,542.1972,354.20914,543.95856,350.46655,545.7749C350.35638,545.82837,350.22913,545.83435,350.11438,545.7916L350.11438,545.7916C346.39484,544.40405,342.78857,543.066,339.34814,543.21747L339.3481,543.2175C339.01416,543.2322,338.68536,543.2607,338.35547,543.30475L338.35547,543.30475C334.62323,543.80316,331.051,546.2711,327.35962,548.83386C327.2549,548.90656,327.12424,548.93115,327.00027,548.9016L327.00027,548.9016C324.27026,548.25104,321.61185,547.6204,318.90396,547.7397L318.90396,547.7397C317.6195,547.79626,316.3266,548.02185,315.01425,548.496L315.01428,548.496C314.81976,548.5662,314.62207,548.64307,314.42587,548.7242L314.42584,548.7242C312.297,549.6041,310.12396,551.06805,308.08514,552.4434L308.08514,552.4434C306.3784,553.59485,304.7459,554.6988,303.36514,555.2695L303.36514,555.2695C302.60257,555.5847,301.9063,555.74274,301.26068,555.77124L301.26065,555.77124C299.17108,555.8632,297.766,554.5877,296.5144,553.4734L296.6188,553.54285C293.06378,551.8405,289.6247,550.19977,287.6398,549.9065L287.63977,549.9065C287.35535,549.86444,287.10992,549.8518,286.89325,549.8614L286.8932,549.8614C285.7354,549.91235,285.31512,550.60443,284.78015,551.5283C284.71826,551.63513,284.61505,551.71173,284.49484,551.73987C284.37463,551.76807,284.2481,551.7455,284.14514,551.6773L284.14514,551.6773C282.36145,550.49615,280.70374,549.4108,279.13354,549.2218L279.13348,549.2218C278.8913,549.1926,278.64868,549.1849,278.40564,549.19556L278.4056,549.19556C277.1051,549.25287,275.81406,549.8323,274.42578,550.468L274.42557,550.46814L274.38904,550.48486C274.24905,550.54895,274.0857,550.53656,273.9568,550.4519L273.9568,550.4519C272.0421,549.1942,270.17975,547.9737,267.51248,547.2286L267.5125,547.2286C264.8227,546.47723,261.30298,546.2047,257.7195,545.9292C257.58633,545.919,257.46466,545.8499,257.3877,545.74066L257.3877,545.74066C251.42032,537.27515,245.54974,528.9696,238.66783,525.6712L238.66783,525.6712C235.38008,524.0954,231.83719,523.6558,228.13281,523.819L228.13283,523.819C224.13347,523.9952,219.97836,524.8714,215.77847,525.7583C215.55876,525.8047,215.33865,525.6813,215.26367,525.4696L215.26367,525.4696L211.51996,514.9019C211.43735,514.66876,211.55942,514.4128,211.79262,514.3301C212.02582,514.24744,212.28183,514.3696,212.36446,514.6028 Z"/> </g> <g style="fill:rgb(0,0,0); fill-opacity:1.0; stroke-linejoin: miter"> <path d="M433.1748,383.81442L433.1748,383.81442L425.4201,350.30963L425.59302,350.57086C422.2696,348.15338,418.89926,345.69485,416.25482,338.28012L416.25482,338.28012C413.63434,330.9325,411.71695,318.69287,411.11588,311.05252L411.11588,311.05252C410.51178,303.37375,411.23206,300.27435,411.954,297.18692L411.94278,297.31055L410.2788,262.81384C410.2669,262.5667,410.45758,262.35675,410.7047,262.34485C410.95178,262.33292,411.1618,262.52356,411.1737,262.7707L411.1737,262.7707L412.83768,297.26736C412.83966,297.30887,412.83588,297.35046,412.82642,297.39096L412.82642,297.39096C412.1208,300.40842,411.4136,303.41364,412.00903,310.98227L412.00903,310.98227C412.60748,318.5893,414.51666,330.73932,417.0987,337.9792L417.0987,337.9792C419.65686,345.15198,422.86496,347.47858,426.12003,349.84634C426.2072,349.9098,426.26862,350.0025,426.2929,350.10757L426.2929,350.10757L434.04767,383.6124C434.10345,383.85342,433.9533,384.0941,433.71225,384.14984C433.4712,384.2056,433.2306,384.05545,433.1748,383.81442 Z"/> </g> <g style="fill:rgb(0,0,0); fill-opacity:1.0; stroke-linejoin: miter"> <path d="M419.40076,254.92789L419.40076,254.92789L422.97705,257.77878L422.41058,257.78534C425.4292,255.26295,428.53644,252.6589,431.36508,251.59811L431.36508,251.59811C432.42285,251.20143,433.47055,251.00818,434.47998,251.13043L434.47998,251.13043C438.14294,251.5741,440.8817,256.15778,443.4396,260.3621L443.2215,260.1783L443.23572,260.18393L443.23553,260.18387C446.75525,261.57275,450.42014,263.01028,452.80756,265.99033L452.80756,265.99033C455.1858,268.95886,456.26056,273.41965,457.30945,277.73608L456.90222,277.39478L456.91022,277.3953L456.91025,277.39526C459.02133,277.52805,461.2304,277.6689,463.9182,279.92184L463.9182,279.92184C466.5478,282.126,469.6505,286.37177,472.7009,290.5405L472.40472,290.36185C474.2959,290.641,476.1371,291.05682,476.63293,296.3755L476.63293,296.3755C477.11414,301.53754,476.377,311.5677,475.6469,321.52536L475.6459,321.53696L473.29724,345.14563C473.29367,345.18137,473.28583,345.21655,473.27386,345.25046L473.27386,345.25046C472.99185,346.04907,472.68625,346.857,472.4223,353.1924L472.4223,353.1924C472.1585,359.5241,471.93726,371.31824,472.2069,378.6754L472.2069,378.6754C472.47574,386.01028,473.23166,388.91797,473.9876,391.83417C474.04968,392.07367,473.90588,392.3181,473.66635,392.3802C473.42688,392.44226,473.18243,392.29846,473.12036,392.059L473.12036,392.059C472.35175,389.094,471.58328,386.12094,471.31155,378.70822L471.31155,378.70822C471.0407,371.318,471.26288,359.4979,471.52713,353.15512L471.52713,353.15512C471.79126,346.81583,472.09833,345.8887,472.42905,344.95212L472.4057,345.05695L474.7544,321.44827L474.7534,321.45984C475.48682,311.4565,476.21323,301.5259,475.74084,296.45865L475.74084,296.45865C475.28305,291.54816,473.75357,291.46655,472.27396,291.24817C472.1553,291.23068,472.04865,291.16635,471.97784,291.06958L471.97784,291.06958C468.89685,286.859,465.86816,282.72534,463.34265,280.60846L463.34265,280.60846C460.88196,278.54587,458.9163,278.41913,456.854,278.28946L456.85403,278.28943L456.84607,278.28894C456.65024,278.2766,456.48517,278.13828,456.43887,277.94763L456.43887,277.94763C455.3744,273.5671,454.33585,269.33087,452.10834,266.55048L452.10834,266.55048C449.89612,263.78915,446.47565,262.4256,442.90665,261.01724L442.90646,261.01715L442.89227,261.01157C442.80164,260.9758,442.72498,260.91122,442.67422,260.82776L442.67422,260.82776C439.9945,256.42328,437.49564,252.39816,434.37225,252.0199L434.37225,252.0199C433.5487,251.92012,432.65036,252.073,431.6797,252.43701L431.6797,252.43701C429.02676,253.43192,426.0502,255.91154,422.98505,258.4728C422.82178,258.60928,422.585,258.61203,422.41858,258.47937L422.41858,258.47937L418.8423,255.62845C418.6488,255.47423,418.617,255.19238,418.7712,254.99892C418.92545,254.80548,419.20728,254.77367,419.40076,254.92789 Z"/> </g> <g style="fill:rgb(0,0,0); fill-opacity:1.0; stroke-linejoin: miter"> <path d="M411.03888,199.64653L411.03888,199.64653C429.2677,217.87535,433.77652,243.31763,420.65906,256.43512L420.65906,256.43512C407.54163,269.55255,382.09927,265.0437,363.87045,246.8149L363.87045,246.8149C345.64166,228.58612,341.13287,203.14377,354.25027,190.02635L354.25027,190.02635C367.36777,176.90883,392.8101,181.41776,411.03888,199.64653L411.03888,199.64653 M410.40533,200.28004L410.40533,200.28004C392.3076,182.1823,367.46686,178.07678,354.88382,190.65987L354.88382,190.65987C342.30078,203.24289,346.4062,228.08359,364.504,246.18138L364.504,246.18138C382.6018,264.27917,407.44247,268.38464,420.0255,255.80159L420.0255,255.80159C432.60858,243.21848,428.50317,218.37787,410.40533,200.28004 Z"/> </g> <g style="fill:rgb(0,0,0); fill-opacity:1.0; stroke-linejoin: miter"> <path d="M264.7328,216.88286L264.7328,216.88286L264.7328,216.88286L264.7328,216.88286L264.7328,216.88286L264.7328,216.88286L264.7328,216.88286L264.7328,216.88286L264.7328,216.88286L264.7328,216.88286 M265.4395,217.43355L265.4395,217.43355L265.4395,217.43355L265.4395,217.43355L265.4395,217.43355L265.4395,217.43355L265.4395,217.43355L265.4395,217.43355L265.4395,217.43355 Z"/> </g> <g style="fill:rgb(0,0,0); fill-opacity:1.0; stroke-linejoin: miter"> <path d="M275.71927,205.96231L275.71927,205.96231L275.71927,205.96231L275.71927,205.96231L275.71927,205.96231L275.71927,205.96231L275.71927,205.96231L275.71927,205.96231L275.71927,205.96231L275.71927,205.96231 M276.4031,206.54114L276.4031,206.54114L276.4031,206.54114L276.4031,206.54114L276.4031,206.54114L276.4031,206.54114L276.4031,206.54114L276.4031,206.54114L276.4031,206.54114 Z"/> </g> <g style="fill:rgb(0,0,0); fill-opacity:1.0; stroke-linejoin: miter"> <path d="M275.71927,205.96231L275.71927,205.96231L275.71927,205.96231L275.71927,205.96231L275.71927,205.96231L275.71927,205.96231L275.71927,205.96231L275.71927,205.96231L275.71927,205.96231L275.71927,205.96231 M276.4031,206.54114L276.4031,206.54114L276.4031,206.54114L276.4031,206.54114L276.4031,206.54114L276.4031,206.54114L276.4031,206.54114L276.4031,206.54114L276.4031,206.54114 Z"/> </g> <g style="fill:rgb(0,0,0); fill-opacity:1.0; stroke-linejoin: miter"> <path d="M275.71927,205.96231L275.71927,205.96231L275.71927,205.96231L275.71927,205.96231L275.71927,205.96231L275.71927,205.96231L275.71927,205.96231L275.71927,205.96231L275.71927,205.96231L275.71927,205.96231 M276.4031,206.54114L276.4031,206.54114L276.4031,206.54114L276.4031,206.54114L276.4031,206.54114L276.4031,206.54114L276.4031,206.54114L276.4031,206.54114L276.4031,206.54114 Z"/> </g> <g style="fill:rgb(0,0,0); fill-opacity:1.0; stroke-linejoin: miter"> <path d="M400.52423,207.86195L400.52423,207.86195C416.53195,223.86966,422.81296,244.24606,413.79498,253.26408L413.79498,253.26408C404.777,262.28207,384.40042,256.00107,368.39276,239.9934L368.39276,239.9934C352.38498,223.98563,346.10397,203.60927,355.12204,194.5912L355.12204,194.5912C364.14,185.57323,384.51654,191.85425,400.52423,207.86195L400.52423,207.86195 M399.8907,208.49547L399.8907,208.49547C383.84412,192.44888,364.1334,186.84691,355.75558,195.22472L355.75558,195.22472C347.3776,203.6027,352.9796,223.31319,369.0263,239.35988L369.0263,239.35988C385.0728,255.40643,404.7836,261.0084,413.16144,252.63057L413.16144,252.63057C421.53934,244.25262,415.93735,224.54208,399.8907,208.49547 Z"/> </g> <g style="fill:rgb(0,0,0); fill-opacity:1.0; stroke-linejoin: miter"> <path d="M275.71927,205.96231L275.71927,205.96231L275.71927,205.96231L275.71927,205.96231L275.71927,205.96231L275.71927,205.96231L275.71927,205.96231L275.71927,205.96231L275.71927,205.96231L275.71927,205.96231 M276.4031,206.54114L276.4031,206.54114L276.4031,206.54114L276.4031,206.54114L276.4031,206.54114L276.4031,206.54114L276.4031,206.54114L276.4031,206.54114L276.4031,206.54114 Z"/> </g> <g style="fill:rgb(0,0,0); fill-opacity:1.0; stroke-linejoin: miter"> <path d="M275.71927,205.96231L275.71927,205.96231L275.71927,205.96231L275.71927,205.96231L275.71927,205.96231L275.71927,205.96231L275.71927,205.96231L275.71927,205.96231L275.71927,205.96231L275.71927,205.96231 M276.4031,206.54114L276.4031,206.54114L276.4031,206.54114L276.4031,206.54114L276.4031,206.54114L276.4031,206.54114L276.4031,206.54114L276.4031,206.54114L276.4031,206.54114 Z"/> </g> <g style="fill:rgb(0,0,0); fill-opacity:1.0; stroke-linejoin: miter"> <path d="M137.17975,257.4278L137.17975,257.4278L137.17975,257.4278L137.17975,257.4278L137.17975,257.4278L137.17975,257.4278L137.17975,257.4278L137.17975,257.4278L137.17975,257.4278L137.17975,257.4278 M137.91568,257.93878L137.91568,257.93878L137.91568,257.93878L137.91568,257.93878L137.91568,257.93878L137.91568,257.93878L137.91568,257.93878L137.91568,257.93878L137.91568,257.93878 Z"/> </g> <g style="fill:rgb(0,0,0); fill-opacity:1.0; stroke-linejoin: miter"> <path d="M-55.636116,356.11075L-55.636116,356.11075L-55.636116,356.11075L-55.636116,356.11075L-55.636116,356.11075L-55.636116,356.11075L-55.636116,356.11075L-55.636116,356.11075L-55.636116,356.11075L-55.636116,356.11075 M-54.9002,356.62173L-54.9002,356.62173L-54.9002,356.62173L-54.9002,356.62173L-54.9002,356.62173L-54.9002,356.62173L-54.9002,356.62173L-54.9002,356.62173L-54.9002,356.62173 Z"/> </g> <g style="fill:rgb(0,0,0); fill-opacity:1.0; stroke-linejoin: miter"> <path d="M110.633224,494.78885C110.76274,494.78885,110.88662,494.845,110.97205,494.94376C111.06485,495.0511,111.10133,495.196,111.070404,495.33447L106.21844,517.0534C106.17286,517.25745,105.99223,517.40283,105.78319,517.40375L105.781334,517.40375C105.57307,517.40375,105.39212,517.2602,105.344925,517.0572C103.73301,510.12405,102.06267,502.9938,102.899765,499.2467C103.467926,496.70343,105.16795,495.6786,107.152435,495.21896C108.24346,494.96628,109.44339,494.877,110.59964,494.7901C110.61086,494.78925,110.62206,494.78885,110.633224,494.78885 Z M433.8672,251.99002C433.18506,251.99002,432.45547,252.14609,431.6797,252.43701C429.02676,253.43192,426.0502,255.91154,422.98505,258.4728C422.902,258.54224,422.79993,258.57706,422.69778,258.57706C422.5991,258.57706,422.50034,258.54456,422.41858,258.47937L420.3002,256.79068L420.29602,256.79068C417.61624,259.36078,414.44638,261.2212,410.94485,262.40353L410.94894,262.40353C411.077,262.47702,411.16608,262.61224,411.1737,262.7707L412.83768,297.26736C412.83966,297.30887,412.83588,297.35046,412.82642,297.39096C412.1208,300.40842,411.4136,303.41364,412.00903,310.98227C412.60748,318.5893,414.51666,330.73932,417.0987,337.9792C419.65686,345.15198,422.86496,347.47858,426.12003,349.84634C426.2072,349.9098,426.26862,350.0025,426.2929,350.10757L434.04767,383.6124C434.0988,383.83328,433.97696,384.05386,433.7707,384.1321L433.77502,384.1321C428.97968,414.51855,424.20435,444.80823,422.30328,462.1874C420.39423,479.63947,421.39063,484.0137,422.37234,488.38013C422.39978,488.50208,422.37494,488.62994,422.3039,488.73288C416.81772,496.67892,411.45667,504.46796,410.84518,510.85132C410.24048,517.1634,414.29657,522.1706,418.5305,527.3599C418.65295,527.5101,418.66507,527.722,418.56042,527.8851C418.47668,528.01556,418.33344,528.0911,418.18344,528.0911C418.14597,528.0911,418.1081,528.0864,418.07062,528.07666C413.9554,527.00635,409.93036,525.96356,406.75702,525.96356C406.55786,525.96356,406.36203,525.96765,406.16974,525.97614C405.16974,526.0202,404.28656,526.18207,403.5369,526.48627C402.07025,527.0814,401.0392,528.2469,399.90308,529.544C398.60208,531.0294,397.17923,532.66833,394.85022,533.36115C393.97925,533.62036,392.99585,533.743,391.9578,533.78876C391.60547,533.80426,391.24448,533.811,390.87683,533.811C389.66193,533.811,388.37442,533.7375,387.08627,533.6642C385.75305,533.5883,384.4171,533.5126,383.13367,533.5126C382.73184,533.5126,382.33517,533.52,381.9453,533.5372L381.94525,533.5372C380.91412,533.5825,379.94098,533.69617,379.06033,533.9165C374.5354,535.0487,372.11743,539.0717,369.58923,543.32556C369.5064,543.4649,369.35812,543.5447,369.20404,543.5447C369.14804,543.5447,369.09128,543.5341,369.03662,543.5121C366.80502,542.6122,364.65988,541.7526,362.1867,541.7526C362.03192,541.7526,361.87585,541.756,361.71838,541.76294L361.71832,541.763C361.45493,541.77454,361.18713,541.79626,360.9152,541.82886L360.91516,541.82886C357.85083,542.1972,354.20914,543.95856,350.46655,545.7749C350.40497,545.8048,350.33804,545.8198,350.27097,545.8198C350.21802,545.8198,350.16498,545.8105,350.11438,545.7916C346.58887,544.47644,343.16513,543.2057,339.8879,543.2057C339.70755,543.2057,339.52762,543.2096,339.34814,543.21747L339.3481,543.2175C339.01416,543.2322,338.68536,543.2607,338.35547,543.30475C334.62323,543.80316,331.051,546.2711,327.35962,548.83386C327.28394,548.8864,327.19467,548.9138,327.1042,548.9138C327.0695,548.9138,327.03464,548.9098,327.00027,548.9016C324.4965,548.30493,322.05292,547.7251,319.57617,547.7251C319.3524,547.7251,319.12836,547.7298,318.90396,547.7397C317.6195,547.79626,316.3266,548.02185,315.01425,548.496L315.01428,548.496C314.81976,548.5662,314.62207,548.64307,314.42587,548.7242L314.42584,548.7242C312.297,549.6041,310.12396,551.06805,308.08514,552.4434C306.3784,553.59485,304.7459,554.6988,303.36514,555.2695C302.60257,555.5847,301.9063,555.74274,301.26068,555.77124L301.26065,555.77124C301.189,555.7744,301.11816,555.77594,301.0481,555.77594C299.10248,555.77594,297.76096,554.5835,296.56516,553.51855L296.5681,553.51855C293.03113,551.82495,289.61526,550.19836,287.6398,549.9065L287.63977,549.9065C287.41467,549.8732,287.21402,549.85834,287.03268,549.85834C286.9849,549.85834,286.93845,549.8594,286.89325,549.8614L286.8932,549.8614C285.7354,549.91235,285.31512,550.60443,284.78015,551.5283C284.71826,551.63513,284.61505,551.71173,284.49484,551.73987C284.46097,551.7478,284.4266,551.7517,284.39243,551.7517C284.3052,551.7517,284.21912,551.72626,284.14514,551.6773C282.36145,550.49615,280.70374,549.4108,279.13354,549.2218L279.13348,549.2218C278.9599,549.20087,278.78607,549.191,278.61203,549.191C278.54327,549.191,278.4745,549.1925,278.40564,549.19556L278.4056,549.19556C277.1051,549.25287,275.81406,549.8323,274.42578,550.468L274.42557,550.46814L274.38904,550.48486C274.32968,550.512,274.26614,550.52545,274.2028,550.52545C274.11673,550.52545,274.03104,550.5007,273.9568,550.4519C272.0421,549.1942,270.17975,547.9737,267.51248,547.2286L267.5125,547.2286C264.8227,546.47723,261.30298,546.2047,257.7195,545.9292C257.58633,545.919,257.46466,545.8499,257.3877,545.74066C251.42032,537.27515,245.54974,528.9696,238.66783,525.6712C235.80118,524.29724,232.74055,523.78705,229.54805,523.78705C229.07909,523.78705,228.60727,523.7981,228.13281,523.819L228.13283,523.819C224.13347,523.9952,219.97836,524.8714,215.77847,525.7583C215.7474,525.76483,215.71634,525.768,215.68567,525.768C215.49942,525.768,215.32805,525.65137,215.26367,525.4696L211.83481,515.79065L211.83269,515.79065C211.82181,515.7915,211.81085,515.7919,211.79987,515.7919C211.74716,515.7919,211.69357,515.78253,211.64136,515.76276C211.40999,515.6752,211.2934,515.41656,211.381,515.18524C211.42226,515.07623,211.46352,514.9672,211.50479,514.8582L211.5069,514.8582C211.46307,514.67896,211.5347,514.4935,211.6804,514.38873L211.68253,514.38873C216.95908,500.45157,222.2824,486.52658,228.24335,478.8942C234.3685,471.05148,241.16827,469.83337,247.82784,468.64304L247.8303,468.64304C257.69882,466.01273,267.24115,463.43808,270.49445,458.69046C273.6977,454.0159,270.83795,447.06393,267.76,439.71503C267.7204,439.62045,267.71442,439.51517,267.74313,439.4167C268.89648,435.45804,269.9817,431.68665,269.49503,429.29297C269.02954,427.00342,267.08423,425.9369,264.8768,424.76025C264.77176,424.7043,264.69333,424.6088,264.6588,424.49493C264.62427,424.38104,264.63647,424.25812,264.69275,424.15323C266.41034,420.95084,268.0207,417.91504,267.4552,414.51584C266.88318,411.0777,264.08765,407.208,261.1777,403.2061L261.17767,403.20602L261.15634,403.1767C261.11932,403.1258,261.09344,403.06754,261.0804,403.00586C260.73608,401.37515,260.39166,399.6542,262.54193,396.9613C262.8273,396.60394,263.15576,396.23032,263.49146,395.84833C265.6776,393.36063,268.10254,390.54706,264.70743,387.03345C260.49875,382.67786,247.64615,377.36453,234.60294,371.98434C234.45627,371.92386,234.35252,371.79028,234.33023,371.6332C233.76366,367.64227,233.20935,363.70447,228.38496,357.77017C223.5184,351.784,214.33339,343.79602,205.09686,335.76544C204.98846,335.6712,204.93634,335.53632,204.94345,335.4032L204.9455,335.4032C202.33247,327.76907,199.77985,320.53812,194.24878,318.53223C193.044,318.09534,191.6919,317.9023,190.22122,317.9023C184.82074,317.9023,177.82152,320.50494,170.64871,323.1905L170.55371,323.21463C156.97327,325.11597,143.43912,327.01157,126.56537,333.77783L126.56535,333.77783C125.58515,334.17096,124.59214,334.58105,123.588715,335.00793C105.281494,342.79703,83.15344,356.31396,76.10907,381.19165C69.044525,406.14026,77.09393,442.5849,85.197205,479.2125C85.22778,479.3509,85.1911,479.49567,85.09827,479.6028C66.90103,500.58554,48.800934,521.46857,42.122284,542.3933C35.452698,563.2903,40.165344,584.2733,44.920685,605.40015C44.94098,605.49023,44.932922,605.58435,44.897644,605.6697C36.40927,626.19855,27.976257,646.61316,28.52353,666.83167C29.070862,687.05066,38.60022,707.1188,48.19046,727.2977C48.226288,727.373,48.240356,727.4569,48.23108,727.5398C46.25952,745.1696,44.30951,762.6661,47.181274,774.3357C50.034943,785.9319,57.665405,791.7843,65.43021,797.72644C65.55585,797.8225,65.62143,797.9778,65.60281,798.1349C64.69855,805.76465,63.78778,813.48724,58.799744,821.6377C54.6859,828.3597,47.80225,835.3616,40.480515,842.37775L65.99216,824.19415C66.06963,824.1389,66.160736,824.11096,66.252144,824.11096C66.328735,824.11096,66.40554,824.13055,66.47473,824.17017C66.626465,824.257,66.713806,824.4242,66.698395,824.59845L66.69809,824.6019L66.6981,824.6019C65.80809,834.74146,64.913216,844.9677,62.187622,852.65125C60.004284,858.8061,56.6512,863.3213,53.09306,867.4734L66.92978,857.30365C67.00784,857.2463,67.101006,857.2166,67.19506,857.2166C67.25022,857.2166,67.30568,857.2268,67.35858,857.24756C67.50168,857.3036,67.60599,857.4292,67.63498,857.58014C68.50845,862.1291,69.43921,866.8825,67.07315,871.16296C64.97812,874.9532,60.31094,878.32416,55.486767,881.58655C60.767765,880.73474,65.81533,879.83514,69.27936,878.4461C69.75675,878.2547,70.192566,878.05896,70.60257,877.8499L70.60263,877.8499L70.61218,877.845C74.29886,875.9607,75.25845,873.24274,76.2623,870.376C76.31229,870.2333,76.43091,870.12537,76.57779,870.0891C76.61332,870.0803,76.64933,870.07605,76.68509,870.07605C76.797134,870.07605,76.906624,870.11816,76.99051,870.19635L83.83829,876.57947C81.89938,871.0533,80.18356,865.39044,81.28165,859.33203C82.48898,852.6698,87.095856,845.57294,91.62317,838.58496C91.70674,838.45593,91.84919,838.38055,91.99901,838.38055C92.02836,838.38055,92.05799,838.3835,92.087524,838.3894C92.26776,838.4257,92.40756,838.56836,92.44003,838.7494L97.74234,868.27435C97.76456,868.39795,97.733826,868.5253,97.65762,868.6251L84.40122,886.0103L304.6604,885.6288L304.66345,885.6288C302.4423,874.68835,300.21652,863.76465,297.58807,853.2796C294.91663,842.6231,291.82785,832.4142,288.73553,822.1937C288.68402,822.0235,288.73807,821.839,288.87323,821.7235C290.47784,820.35175,291.91708,819.11804,291.32037,816.0333C290.89822,813.8513,289.4679,810.7755,287.95697,807.53455C287.22845,805.9719,286.4857,804.3788,285.84805,802.8588C283.89157,798.1948,282.92584,794.2223,281.45996,786.13165C279.99594,778.0516,278.01132,765.7543,279.594,754.68665C280.88312,745.67175,284.5357,737.49756,287.74207,730.31616C288.47495,728.6748,289.18747,727.07874,289.84186,725.5408C293.353,717.289,295.29373,710.4822,295.57565,697.05664C295.85828,683.5969,294.47327,663.5162,293.0855,643.401C293.06848,643.1541,293.25476,642.94025,293.5016,642.9232C293.5121,642.9225,293.52252,642.9221,293.53287,642.9221C293.63882,642.9221,293.7372,642.9594,293.8146,643.0222C326.62228,634.0571,359.40305,625.09546,385.7556,616.4445C412.17157,607.7728,432.13715,599.4107,452.11578,591.043C452.1723,591.01935,452.23093,591.0082,452.2886,591.0082C452.36777,591.0082,452.4451,591.02924,452.51276,591.06824C455.95993,590.46027,459.36374,589.8283,463.9877,586.447C465.66776,585.2184,467.50522,583.62976,469.45544,581.3818C472.9605,577.3418,476.83813,571.161,480.7856,561.1085C486.93732,545.44275,493.23944,520.4314,499.5527,495.37234L499.55975,495.34747L520.7213,428.03214L520.7265,428.03214C513.36066,419.78915,506.02563,411.6047,498.03094,405.58936C490.3766,399.8301,482.1045,396.04987,473.7568,392.34845L473.75204,392.34845C473.72516,392.36166,473.6965,392.37238,473.66635,392.3802C473.62866,392.38995,473.59085,392.39462,473.55365,392.39462C473.35803,392.39462,473.17923,392.26556,473.12332,392.06982L473.12805,392.06982C472.90662,391.97177,472.68512,391.8737,472.4636,391.77563C472.23737,391.67548,472.13516,391.41092,472.23532,391.18472C472.3094,391.01746,472.47333,390.918,472.64517,390.918C472.70575,390.918,472.7673,390.93036,472.82626,390.95645C472.83057,390.95834,472.83484,390.96027,472.83914,390.96216C472.17114,388.3,471.55005,385.21396,471.31155,378.70822C471.0407,371.318,471.26288,359.4979,471.52713,353.15512C471.7847,346.9732,472.0831,345.93808,472.40445,345.02194L472.40918,345.02194L474.75323,321.45984L474.7534,321.45984C475.48682,311.4565,476.21323,301.5259,475.74084,296.45865C475.28305,291.54816,473.75357,291.46655,472.27396,291.24817C472.1553,291.23068,472.04865,291.16635,471.97784,291.06958C468.89685,286.859,465.86816,282.72534,463.34265,280.60846C460.88196,278.54587,458.9163,278.41913,456.854,278.28946L456.85403,278.28943L456.84607,278.28894C456.65024,278.2766,456.48517,278.13828,456.43887,277.94763C455.3744,273.5671,454.33585,269.33087,452.10834,266.55048C449.89612,263.78915,446.47565,262.4256,442.90665,261.01724L442.90646,261.01715L442.89227,261.01157C442.80164,260.9758,442.72498,260.91122,442.67422,260.82776C439.9945,256.42328,437.49564,252.39816,434.37225,252.0199C434.2069,251.99986,434.03854,251.99002,433.8672,251.99002 Z"/> </g> <g style="fill:rgb(0,0,0); fill-opacity:1.0; stroke-linejoin: miter"> <path d="M366.42456,190.44893C376.4491,190.44893,389.5191,196.85681,400.52423,207.86195C416.53195,223.86966,422.81296,244.24606,413.79498,253.26408C410.97678,256.0823,407.04926,257.40637,402.4924,257.40637C392.4679,257.40637,379.39786,250.9985,368.39276,239.9934C352.38498,223.98563,346.10397,203.60927,355.12204,194.5912C357.94025,191.773,361.86777,190.44893,366.42456,190.44893 Z M374.02792,183.39268C366.53644,183.39268,359.7816,185.76208,354.88382,190.65987C342.30078,203.24289,346.4062,228.08359,364.504,246.18138C375.5575,257.23486,389.12628,263.06876,400.88144,263.06876C408.15268,263.06876,414.73,260.8366,419.58884,256.22693L419.59305,256.22693L418.8423,255.62845C418.6488,255.47423,418.617,255.19238,418.7712,254.99892C418.85968,254.88797,418.9901,254.83018,419.1218,254.83018C419.2197,254.83018,419.31824,254.86212,419.40076,254.92789L420.23306,255.59137C432.56268,242.9435,428.40292,218.27762,410.40533,200.28004C399.35187,189.2266,385.78305,183.39268,374.02792,183.39268 Z"/> </g> </g> </svg>