<svg xmlns="http://www.w3.org/2000/svg" width="600" height="976">
  <path d="M83.177 886.139l13.768-18.057-.084.35-5.303-29.524.817.164c-4.562 7.041-9.043 13.972-10.212 20.42-1.163 6.418.955 12.399 3.13 18.513a.448.448 0 01-.727.478l-8.186-7.631.728-.18c-1.01 2.882-2.063 5.913-6.088 7.97l.01-.004h-.003l-.01.006c-.437.224-.905.433-1.404.634-4.016 1.61-10.043 2.567-15.99 3.514l.008-.002-.003.001a.448.448 0 01-.328-.813c5.467-3.67 10.78-7.251 12.99-11.248 2.182-3.95 1.352-8.362.465-12.981l.705.276-17.16 12.613a.448.448 0 01-.6-.658c4.517-5.081 8.973-10.101 11.643-17.628 2.68-7.553 3.57-17.65 4.463-27.829v-.004l.706.405-30.681 21.868a.448.448 0 01-.568-.69c8.973-8.498 17.88-16.937 22.773-24.932 4.874-7.965 5.772-15.505 6.677-23.14l.173.408c-7.752-5.932-15.638-11.953-18.575-23.888-2.919-11.862-.934-29.552 1.03-47.11l.04.242c-9.57-20.135-19.2-40.382-19.753-60.826-.554-20.445 7.972-41.044 16.442-61.529l-.023.27c-4.746-21.083-9.534-42.31-2.778-63.476 6.747-21.138 24.998-42.172 43.152-63.105l-.099.39c-8.08-36.528-16.216-73.24-9.075-98.458 7.161-25.29 29.629-38.952 47.991-46.764 1.013-.432 2.004-.84 2.994-1.238 16.983-6.81 30.612-8.717 44.198-10.619l-.095.024c8.96-3.354 18.201-6.844 24.22-4.661 6.07 2.202 8.729 10.09 11.301 17.608a.448.448 0 11-.847.29c-2.636-7.702-5.185-15.034-10.76-17.056-5.629-2.041-14.474 1.242-23.6 4.659l-.095.024c-13.58 1.901-27.115 3.797-43.989 10.563a154.9 154.9 0 00-2.976 1.23c-18.308 7.789-40.436 21.306-47.48 46.184-7.064 24.948.985 61.393 9.088 98.02a.448.448 0 01-.099.39c-18.197 20.984-36.297 41.867-42.976 62.791-6.67 20.897-1.957 41.88 2.799 63.007.02.09.012.184-.023.27-8.489 20.529-16.922 40.943-16.374 61.162.547 20.219 10.076 40.287 19.666 60.466.036.075.05.159.041.242-1.971 17.63-3.921 35.126-1.05 46.796 2.854 11.596 10.484 17.448 18.25 23.39a.448.448 0 01.172.409c-.904 7.63-1.815 15.352-6.803 23.503-4.97 8.119-13.98 16.647-22.921 25.114l-.568-.69 30.681-21.868a.448.448 0 01.706.404v.004c-.89 10.14-1.785 20.366-4.51 28.05-2.736 7.71-7.308 12.848-11.819 17.923l-.6-.659 17.16-12.612a.448.448 0 01.706.276c.873 4.55 1.804 9.303-.562 13.583-2.339 4.231-7.883 7.94-13.273 11.559l-.328-.813h.003l.008-.002c5.988-.953 11.896-1.897 15.796-3.46.48-.193.919-.39 1.331-.6l-.01.004.003-.001.01-.005c3.686-1.884 4.645-4.602 5.65-7.469a.448.448 0 01.728-.18l8.186 7.631-.727.478c-2.162-6.074-4.381-12.282-3.168-18.973 1.207-6.662 5.814-13.76 10.341-20.747a.448.448 0 01.817.164l5.302 29.525a.448.448 0 01-.084.351l-13.77 18.057a.448.448 0 11-.711-.543z"/>
  <path d="M105.344 516.858l4.852-21.719.47.544c-1.171.089-2.3.174-3.311.409-1.773.41-3.112 1.252-3.58 3.35-.781 3.493.802 10.354 2.443 17.412l-.874.004m.874.195a.448.448 0 01-.873.004c-1.612-6.933-3.282-14.063-2.445-17.81.568-2.544 2.268-3.568 4.252-4.028 1.091-.253 2.291-.342 3.448-.429a.448.448 0 01.47.544l-4.852 21.72zM83.64 886.012l221.57-.384-.438.537-.04-.197c-2.244-11.054-4.488-22.095-7.144-32.688-2.671-10.657-5.76-20.866-8.852-31.086a.448.448 0 01.137-.47c1.605-1.372 3.044-2.606 2.447-5.69-.422-2.183-1.852-5.259-3.363-8.5-.729-1.562-1.471-3.155-2.109-4.675-1.956-4.664-2.922-8.637-4.388-16.727-1.464-8.08-3.449-20.378-1.866-31.445 1.29-9.015 4.942-17.19 8.148-24.37a300.053 300.053 0 002.1-4.776c3.511-8.252 5.452-15.059 5.734-28.484.282-13.46-1.103-33.54-2.49-53.656a.448.448 0 11.893-.062c1.387 20.097 2.776 40.227 2.492 53.736-.284 13.543-2.25 20.463-5.805 28.817a301.276 301.276 0 01-2.106 4.79c-3.213 7.196-6.81 15.26-8.08 24.131-1.559 10.908.397 23.074 1.861 31.159 1.464 8.075 2.416 11.969 4.333 16.54.63 1.501 1.365 3.078 2.095 4.644 1.49 3.194 2.983 6.39 3.43 8.707.698 3.603-1.106 5.141-2.744 6.541l.138-.47c3.091 10.217 6.187 20.447 8.864 31.128 2.661 10.616 4.91 21.678 7.153 32.728l.04.197a.448.448 0 01-.438.537l-221.57.384a.448.448 0 01-.002-.896z"/>
  <path d="M293.562 643.091c32.892-8.988 65.774-17.973 92.194-26.647 26.416-8.671 46.381-17.033 66.36-25.401a.448.448 0 01.346.826c-19.98 8.369-39.974 16.743-66.427 25.427-26.447 8.682-59.35 17.673-92.236 26.66a.448.448 0 01-.237-.865z"/>
  <path d="M452.381 591.091c3.493-.615 6.924-1.22 11.607-4.644 1.68-1.229 3.517-2.817 5.467-5.065 3.506-4.04 7.383-10.221 11.33-20.273 6.152-15.666 12.454-40.678 18.768-65.737l.007-.025 21.239-67.562.093.433c-7.421-8.306-14.806-16.568-22.861-22.629-8.05-6.056-16.782-9.924-25.567-13.813a.448.448 0 11.362-.82c8.773 3.884 17.6 7.79 25.744 13.917 8.138 6.124 15.583 14.458 22.99 22.748.106.118.141.282.094.433l-21.24 67.562.007-.025c-6.306 25.033-12.624 50.113-18.801 65.845-3.975 10.12-7.899 16.396-11.488 20.533-1.998 2.303-3.886 3.936-5.615 5.201-4.85 3.547-8.446 4.18-11.98 4.804a.448.448 0 11-.156-.883zM205.685 335.09c9.208 8.005 18.467 16.054 23.395 22.115 4.97 6.113 5.56 10.234 6.137 14.302l-.272-.35c12.92 5.329 26.03 10.725 30.407 15.254 4.018 4.159.897 7.657-1.188 10.029-.339.386-.652.742-.922 1.08-1.916 2.4-1.6 3.805-1.285 5.3l-.076-.17.021.03c2.86 3.931 5.822 7.994 6.437 11.689.624 3.751-1.17 7.063-2.857 10.208l-.184-.607c2.125 1.132 4.512 2.375 5.075 5.144.542 2.666-.648 6.703-1.77 10.553l-.017-.298c2.987 7.13 6.191 14.657 2.647 19.828-3.492 5.096-13.5 7.734-23.185 10.315l-.036.008c-6.647 1.188-13.151 2.357-19.063 9.926-5.97 7.643-11.331 21.794-16.73 36.056a.448.448 0 01-.838-.317c5.375-14.2 10.788-28.513 16.862-36.29 6.133-7.854 12.943-9.065 19.61-10.257l-.036.008c9.873-2.631 19.423-5.206 22.677-9.956 3.204-4.674.344-11.626-2.734-18.975a.448.448 0 01-.017-.298c1.153-3.959 2.239-7.73 1.752-10.124-.465-2.29-2.41-3.356-4.618-4.533a.448.448 0 01-.184-.607c1.717-3.202 3.328-6.238 2.762-9.637-.572-3.438-3.367-7.308-6.277-11.31l-.022-.03a.448.448 0 01-.076-.17c-.344-1.63-.688-3.352 1.462-6.045.285-.357.614-.73.95-1.113 2.186-2.487 4.61-5.3 1.215-8.815-4.208-4.355-17.06-9.668-30.104-15.049a.448.448 0 01-.273-.35c-.566-3.992-1.12-7.93-5.945-13.864-4.867-5.986-14.052-13.974-23.288-22.005a.448.448 0 11.588-.676z"/>
  <path d="M212.364 514.603l3.744 10.567-.515-.288c4.185-.884 8.414-1.778 12.5-1.958 3.799-.167 7.5.28 10.962 1.94 7.14 3.421 13.152 11.971 19.065 20.36l-.332-.188c3.554.273 7.172.55 9.965 1.33 2.816.786 4.782 2.08 6.696 3.337l-.433-.033.037-.017c1.353-.62 2.806-1.286 4.313-1.352.289-.013.58-.004.875.031 1.826.22 3.676 1.457 5.399 2.598l-.635.15c.523-.904 1.16-2.04 2.849-2.114.281-.012.585.005.917.054 2.155.319 5.752 2.047 9.235 3.715a.451.451 0 01.104.07c1.296 1.153 2.438 2.145 4.111 2.071.526-.023 1.12-.153 1.802-.435 1.278-.528 2.824-1.569 4.561-2.74 2.02-1.363 4.271-2.884 6.5-3.805a13.903 13.903 0 014.78-1.052c2.855-.125 5.636.54 8.344 1.186l-.36.068c3.64-2.527 7.4-5.149 11.389-5.681.357-.048.713-.079 1.072-.095 3.657-.16 7.444 1.26 11.119 2.63l-.353.017c3.693-1.792 7.487-3.64 10.733-4.03.295-.035.585-.058.871-.071 2.895-.128 5.343.866 7.693 1.813l-.553.187c2.482-4.176 5.074-8.582 10.024-9.82.958-.24 1.994-.359 3.063-.406 1.689-.074 3.49.029 5.231.128 1.69.096 3.319.188 4.781.124 1-.044 1.902-.161 2.677-.391 2.047-.61 3.314-2.042 4.634-3.55 1.11-1.268 2.275-2.609 3.971-3.297.871-.353 1.862-.528 2.93-.575 3.421-.15 7.843 1.004 12.166 2.129l-.46.716c-4.175-5.117-8.529-10.417-7.883-17.16.64-6.672 6.19-14.686 11.614-22.542l-.069.353c-1.008-4.487-2.002-8.964-.085-26.487 1.914-17.502 6.737-48.062 11.557-78.606a.448.448 0 01.885.14c-4.822 30.556-9.64 61.087-11.552 78.563-1.909 17.452-.912 21.827.07 26.193a.448.448 0 01-.07.353c-5.485 7.946-10.846 15.735-11.458 22.118-.605 6.312 3.452 11.32 7.685 16.509a.448.448 0 01-.46.717c-4.373-1.138-8.645-2.244-11.9-2.1-1 .043-1.883.205-2.633.51-1.467.594-2.498 1.76-3.634 3.057-1.3 1.485-2.724 3.124-5.053 3.817-.87.26-1.854.382-2.892.428-1.517.067-3.194-.03-4.872-.125-1.75-.1-3.506-.199-5.14-.127-1.032.045-2.005.16-2.886.38-4.525 1.132-6.943 5.155-9.47 9.409a.448.448 0 01-.553.186c-2.372-.956-4.645-1.867-7.319-1.75v.001a10.67 10.67 0 00-.803.066c-3.064.368-6.706 2.13-10.448 3.946a.448.448 0 01-.353.017c-3.72-1.388-7.325-2.726-10.766-2.575a11.19 11.19 0 00-.993.088c-3.732.498-7.304 2.966-10.995 5.529a.448.448 0 01-.36.068c-2.73-.651-5.388-1.282-8.096-1.162a13.007 13.007 0 00-3.89.756c-.194.07-.392.147-.588.228-2.129.88-4.302 2.344-6.34 3.72-1.708 1.15-3.34 2.255-4.72 2.826-.763.315-1.46.473-2.105.501-2.09.092-3.495-1.183-4.747-2.298l.105.07c-3.555-1.702-6.994-3.343-8.98-3.636a3.916 3.916 0 00-.746-.046c-1.158.051-1.578.743-2.113 1.667a.448.448 0 01-.635.15c-1.784-1.182-3.441-2.267-5.011-2.456a4.443 4.443 0 00-.728-.026c-1.3.057-2.592.636-3.98 1.272l-.037.017a.448.448 0 01-.432-.033c-1.915-1.258-3.777-2.478-6.445-3.223-2.69-.752-6.209-1.024-9.793-1.3a.448.448 0 01-.331-.188c-5.968-8.466-11.838-16.771-18.72-20.07-3.288-1.576-6.83-2.015-10.535-1.852-4 .176-8.155 1.052-12.355 1.94a.448.448 0 01-.514-.29l-3.744-10.567a.448.448 0 01.844-.3z"/>
  <path d="M433.175 383.814l-7.755-33.504.173.26c-3.323-2.417-6.694-4.875-9.338-12.29-2.62-7.347-4.538-19.587-5.14-27.227-.603-7.68.117-10.779.839-13.866l-.011.124-1.664-34.497a.448.448 0 01.895-.043l1.664 34.496a.45.45 0 01-.012.124c-.705 3.017-1.412 6.023-.817 13.591.598 7.607 2.508 19.757 5.09 26.997 2.558 7.173 5.766 9.5 9.021 11.867a.448.448 0 01.173.262l7.755 33.504a.448.448 0 11-.873.202zM419.4 254.928l3.577 2.85-.566.007c3.018-2.522 6.125-5.126 8.954-6.187 1.058-.397 2.106-.59 3.115-.468 3.663.444 6.402 5.028 8.96 9.232l-.219-.184.015.006c3.52 1.389 7.184 2.826 9.572 5.806 2.378 2.969 3.453 7.43 4.501 11.746l-.407-.341h.008c2.111.133 4.32.274 7.008 2.527 2.63 2.204 5.733 6.45 8.783 10.618l-.296-.178c1.89.279 3.732.695 4.228 6.013.481 5.163-.256 15.193-.986 25.15l-.001.012-2.349 23.609a.449.449 0 01-.023.104c-.282.8-.588 1.607-.852 7.942-.264 6.332-.485 18.126-.215 25.483.269 7.335 1.025 10.243 1.78 13.16a.448.448 0 01-.867.224c-.768-2.965-1.537-5.938-1.808-13.35-.271-7.391-.05-19.211.215-25.554.264-6.34.571-7.266.902-8.203l-.023.105 2.348-23.609v.012c.733-10.003 1.46-19.934.987-25.001-.458-4.91-1.987-4.992-3.467-5.21a.448.448 0 01-.296-.18c-3.081-4.21-6.11-8.344-8.635-10.46-2.461-2.063-4.427-2.19-6.489-2.32h-.008a.448.448 0 01-.407-.341c-1.065-4.38-2.103-8.617-4.33-11.398-2.213-2.76-5.633-4.124-9.202-5.533l-.015-.005a.448.448 0 01-.218-.184c-2.68-4.405-5.178-8.43-8.302-8.808-.823-.1-1.722.053-2.692.417-2.653.995-5.63 3.475-8.695 6.036a.448.448 0 01-.566.006l-3.577-2.85a.448.448 0 11.559-.701z"/>
  <path d="M411.039 199.647c18.229 18.228 22.738 43.67 9.62 56.788-13.117 13.118-38.56 8.609-56.789-9.62-18.228-18.229-22.737-43.671-9.62-56.789 13.118-13.117 38.56-8.608 56.789 9.62m-.634.634c-18.097-18.098-42.938-22.203-55.521-9.62-12.583 12.583-8.478 37.424 9.62 55.521 18.098 18.098 42.938 22.204 55.522 9.62 12.583-12.583 8.477-37.423-9.62-55.521zM265.44 217.43300000000002zM276.403 206.542zM276.403 206.542zM276.403 206.542z"/>
  <path d="M400.524 207.862c16.008 16.008 22.289 36.384 13.271 45.402s-29.395 2.737-45.402-13.27c-16.008-16.008-22.289-36.385-13.271-45.403s29.395-2.737 45.402 13.27v.001m-.633.633c-16.047-16.046-35.758-21.648-44.135-13.27-8.378 8.378-2.776 28.088 13.27 44.135 16.047 16.046 35.758 21.648 44.135 13.27 8.378-8.377 2.776-28.088-13.27-44.135zM276.403 206.542zM276.403 206.542zM137.916 257.938zM-54.900000000000006 356.622zM110.633 494.789a.448.448 0 01.437.545l-4.852 21.72a.448.448 0 01-.435.35h-.002a.448.448 0 01-.436-.347c-1.612-6.933-3.282-14.063-2.445-17.81.568-2.544 2.268-3.568 4.252-4.028 1.091-.253 2.291-.342 3.448-.429a.444.444 0 01.033-.001zM433.867 251.99c-.682 0-1.412.156-2.187.447-2.653.995-5.63 3.475-8.695 6.036a.447.447 0 01-.566.006l-2.119-1.688h-.004c-2.68 2.57-5.85 4.43-9.351 5.613h.004a.447.447 0 01.225.367l1.664 34.496a.45.45 0 01-.012.124c-.705 3.017-1.412 6.023-.817 13.591.598 7.607 2.508 19.757 5.09 26.997 2.558 7.173 5.766 9.5 9.021 11.867a.448.448 0 01.173.262l7.755 33.504a.448.448 0 01-.277.52h.004c-4.795 30.387-9.57 60.676-11.472 78.055-1.909 17.452-.912 21.827.07 26.193a.448.448 0 01-.07.353c-5.485 7.946-10.846 15.735-11.458 22.118-.605 6.312 3.452 11.32 7.685 16.509a.448.448 0 01-.46.717c-4.115-1.07-8.14-2.113-11.313-2.113-.2 0-.395.004-.587.012-1 .044-1.883.206-2.633.51-1.467.595-2.498 1.76-3.634 3.058-1.3 1.485-2.724 3.124-5.053 3.817-.87.26-1.854.382-2.892.428-.353.015-.714.022-1.081.022-1.215 0-2.503-.074-3.79-.147-1.334-.076-2.67-.151-3.953-.151a27 27 0 00-1.189.024c-1.03.045-2.004.16-2.885.38-4.525 1.132-6.943 5.155-9.47 9.409a.448.448 0 01-.553.186c-2.232-.9-4.377-1.76-6.85-1.76-.155 0-.311.004-.469.01v.001a10.67 10.67 0 00-.803.066c-3.064.368-6.706 2.13-10.448 3.946a.448.448 0 01-.353.017c-3.525-1.316-6.949-2.586-10.226-2.586a11.19 11.19 0 00-1.532.1c-3.733.497-7.305 2.965-10.996 5.528a.448.448 0 01-.36.068c-2.503-.597-4.947-1.177-7.424-1.177-.224 0-.448.005-.672.015a13.007 13.007 0 00-3.89.756c-.194.07-.392.147-.588.228-2.129.88-4.302 2.344-6.34 3.72-1.708 1.15-3.34 2.255-4.72 2.826-.763.315-1.46.473-2.105.501a4.823 4.823 0 01-.213.005c-1.946 0-3.287-1.192-4.483-2.257h.003c-3.537-1.694-6.953-3.32-8.928-3.612a4.15 4.15 0 00-.747-.046c-1.158.051-1.578.743-2.113 1.667a.448.448 0 01-.635.15c-1.784-1.182-3.441-2.267-5.011-2.456a4.351 4.351 0 00-.728-.026c-1.3.057-2.592.636-3.98 1.272l-.037.017a.448.448 0 01-.432-.033c-1.915-1.258-3.777-2.478-6.445-3.223-2.69-.752-6.209-1.024-9.793-1.3a.448.448 0 01-.331-.188c-5.968-8.466-11.838-16.771-18.72-20.07-2.867-1.374-5.927-1.884-9.12-1.884-.469 0-.94.011-1.415.032-4 .176-8.155 1.052-12.355 1.94a.448.448 0 01-.515-.289l-3.428-9.68h-.002a.422.422 0 01-.192-.027.448.448 0 01-.26-.578l.124-.327h.002a.448.448 0 01.173-.47h.003c5.276-13.936 10.6-27.861 16.56-35.494 6.126-7.843 12.925-9.06 19.585-10.251h.002c9.869-2.63 19.411-5.205 22.664-9.953 3.204-4.674.344-11.626-2.734-18.975a.448.448 0 01-.017-.298c1.153-3.959 2.239-7.73 1.752-10.124-.465-2.29-2.41-3.356-4.618-4.533a.448.448 0 01-.184-.607c1.717-3.202 3.328-6.238 2.762-9.637-.572-3.438-3.367-7.308-6.277-11.31l-.022-.03a.448.448 0 01-.076-.17c-.344-1.63-.688-3.352 1.462-6.045.285-.357.614-.73.95-1.113 2.186-2.487 4.61-5.3 1.215-8.815-4.208-4.355-17.06-9.668-30.104-15.049a.448.448 0 01-.273-.35c-.566-3.992-1.12-7.93-5.945-13.864-4.867-5.986-14.052-13.974-23.288-22.005a.447.447 0 01-.154-.362h.002c-2.613-7.634-5.165-14.865-10.696-16.87-1.205-.438-2.557-.63-4.028-.63-5.4 0-12.4 2.602-19.572 5.287l-.095.025c-13.58 1.901-27.115 3.797-43.989 10.563-.98.393-1.973.803-2.976 1.23-18.308 7.789-40.436 21.306-47.48 46.184-7.064 24.948.985 61.393 9.088 98.02a.448.448 0 01-.099.39c-18.197 20.984-36.297 41.867-42.976 62.791-6.67 20.897-1.957 41.88 2.799 63.007.02.09.012.184-.023.27-8.489 20.529-16.922 40.943-16.374 61.162.547 20.219 10.076 40.287 19.666 60.466.036.075.05.159.041.242-1.971 17.63-3.921 35.126-1.05 46.796 2.854 11.596 10.484 17.448 18.25 23.39a.448.448 0 01.172.409c-.904 7.63-1.815 15.352-6.803 23.503-4.114 6.722-10.998 13.724-18.32 20.74l25.512-18.184a.447.447 0 01.706.404v.004c-.89 10.14-1.785 20.366-4.51 28.05-2.184 6.154-5.537 10.67-9.095 14.821l13.837-10.17a.448.448 0 01.705.277c.873 4.55 1.804 9.303-.562 13.583-2.095 3.79-6.762 7.161-11.586 10.424 5.28-.852 10.328-1.752 13.792-3.14.478-.192.914-.388 1.324-.597l.01-.005c3.686-1.884 4.645-4.602 5.65-7.469a.448.448 0 01.728-.18l6.847 6.383c-1.939-5.526-3.654-11.189-2.556-17.247 1.207-6.662 5.814-13.76 10.341-20.747a.448.448 0 01.817.164l5.302 29.525a.448.448 0 01-.084.351L84.4 886.01l220.26-.381h.002c-2.22-10.94-4.446-21.864-7.075-32.35-2.671-10.656-5.76-20.865-8.852-31.085a.448.448 0 01.137-.47c1.605-1.372 3.044-2.606 2.447-5.69-.422-2.183-1.852-5.259-3.363-8.5-.729-1.562-1.471-3.155-2.109-4.675-1.956-4.664-2.922-8.637-4.388-16.727-1.464-8.08-3.449-20.378-1.866-31.445 1.29-9.015 4.942-17.19 8.148-24.37a300.053 300.053 0 002.1-4.776c3.511-8.252 5.452-15.059 5.734-28.484.282-13.46-1.103-33.54-2.49-53.656a.448.448 0 01.729-.379c32.807-8.965 65.588-17.927 91.94-26.578 26.417-8.671 46.382-17.033 66.36-25.401a.447.447 0 01.398.025c3.447-.608 6.85-1.24 11.475-4.621 1.68-1.229 3.517-2.817 5.467-5.065 3.506-4.04 7.383-10.221 11.33-20.273 6.152-15.666 12.454-40.678 18.768-65.737l.007-.025 21.161-67.315h.005c-7.365-8.243-14.7-16.427-22.695-22.443-7.654-5.759-15.927-9.54-24.274-13.24h-.005a.45.45 0 01-.198.046.448.448 0 01-.43-.325h.004l-.664-.294a.448.448 0 11.362-.82l.013.006c-.668-2.662-1.289-5.748-1.527-12.254-.271-7.39-.05-19.21.215-25.553.258-6.182.556-7.217.877-8.133h.005l2.344-23.562c.734-10.003 1.46-19.934.988-25.001-.458-4.91-1.987-4.992-3.467-5.21a.448.448 0 01-.296-.18c-3.081-4.21-6.11-8.344-8.635-10.46-2.461-2.063-4.427-2.19-6.489-2.32h-.008a.448.448 0 01-.407-.341c-1.065-4.38-2.103-8.617-4.33-11.398-2.213-2.76-5.633-4.124-9.202-5.533l-.015-.005a.448.448 0 01-.218-.184c-2.68-4.405-5.178-8.43-8.302-8.808a4.195 4.195 0 00-.505-.03z"/>
  <path d="M366.425 190.449c10.024 0 23.094 6.408 34.1 17.413 16.007 16.008 22.288 36.384 13.27 45.402-2.818 2.818-6.746 4.142-11.303 4.142-10.024 0-23.094-6.407-34.1-17.413-16.007-16.007-22.288-36.384-13.27-45.402 2.818-2.818 6.746-4.142 11.303-4.142zm7.603-7.056c-7.492 0-14.246 2.37-19.144 7.267-12.583 12.583-8.478 37.424 9.62 55.521 11.053 11.054 24.622 16.888 36.377 16.888 7.272 0 13.849-2.232 18.708-6.842h.004l-.75-.599a.448.448 0 11.558-.7l.832.663c12.33-12.648 8.17-37.313-9.828-55.311-11.053-11.053-24.622-16.887-36.377-16.887z"/>
</svg>
