<svg xmlns="http://www.w3.org/2000/svg" width="880" height="880">
  <g fill="#231f20">
    <path d="M41.521 913.528h4.903c1.513 0 2.701-.141 3.563-.424.861-.283 1.548-.68 2.06-1.19.72-.722 1.281-1.693 1.682-2.91.403-1.219.604-2.696.604-4.43 0-2.405-.393-4.253-1.182-5.545-.788-1.289-1.747-2.156-2.874-2.594-.816-.314-2.125-.47-3.932-.47h-4.824zm-3.042 2.708v-22.98h7.909c1.784 0 3.147.11 4.087.33 1.314.303 2.437.851 3.366 1.646 1.211 1.023 2.116 2.332 2.716 3.925.602 1.594.902 3.416.902 5.464 0 1.744-.204 3.292-.611 4.639-.407 1.348-.93 2.464-1.567 3.347-.636.884-1.333 1.578-2.09 2.085-.756.507-1.67.89-2.74 1.152-1.07.261-2.299.392-3.688.392zM63.395 906.319h9.292c-.126-1.403-.48-2.456-1.066-3.158-.898-1.089-2.064-1.633-3.494-1.633-1.295 0-2.384.435-3.267 1.304-.883.868-1.37 2.03-1.465 3.487m9.261 4.542l2.916.375c-.46 1.703-1.31 3.024-2.553 3.964-1.242.94-2.83 1.41-4.762 1.41-2.432 0-4.362-.749-5.786-2.249-1.426-1.498-2.138-3.601-2.138-6.308 0-2.8.72-4.972 2.162-6.518 1.44-1.547 3.309-2.32 5.606-2.32 2.224 0 4.04.757 5.451 2.272 1.41 1.514 2.115 3.646 2.115 6.392 0 .168-.006.42-.016.753H63.228c.105 1.83.623 3.233 1.553 4.207.931.972 2.092 1.46 3.483 1.46 1.035 0 1.919-.274 2.65-.822.733-.546 1.313-1.418 1.742-2.616M77.985 911.256l2.792-.437c.158 1.122.594 1.985 1.311 2.582.717.598 1.719.898 3.005.898 1.298 0 2.26-.266 2.888-.794.628-.529.942-1.148.942-1.861 0-.639-.276-1.14-.827-1.507-.385-.252-1.347-.57-2.884-.958-2.072-.523-3.508-.975-4.308-1.355-.8-.381-1.407-.908-1.82-1.583a4.182 4.182 0 01-.619-2.232c0-.742.17-1.428.51-2.06a4.567 4.567 0 011.386-1.576c.439-.322 1.038-.597 1.796-.821a8.506 8.506 0 012.438-.337c1.305 0 2.453.188 3.44.564.988.376 1.717.885 2.188 1.526.469.643.793 1.5.972 2.576l-2.751.375c-.125-.856-.49-1.525-1.09-2.007-.602-.481-1.453-.721-2.55-.721-1.299 0-2.224.215-2.779.644-.554.428-.83.93-.83 1.507 0 .366.114.697.345.989.23.304.59.556 1.081.755.283.105 1.115.345 2.496.721 1.998.535 3.391.97 4.178 1.31.786.34 1.404.833 1.852 1.48.448.649.672 1.451.672 2.413 0 .94-.275 1.825-.823 2.656-.55.829-1.341 1.472-2.377 1.926-1.035.455-2.206.682-3.512.682-2.164 0-3.815-.451-4.948-1.351-1.136-.899-1.86-2.233-2.174-4.004M95.17 899.59h2.813v16.645H95.17zm0-6.334h2.813v3.25H95.17zM104.104 907.616c0 2.185.433 3.779 1.299 4.781.866 1.004 1.952 1.506 3.256 1.506 1.293 0 2.378-.499 3.256-1.498.876-.997 1.313-2.562 1.313-4.696 0-2.037-.45-3.573-1.353-4.609-.903-1.033-1.99-1.552-3.264-1.552-1.251 0-2.316.51-3.192 1.53-.876 1.018-1.315 2.531-1.315 4.538m-2.333 9.995l2.749.417c.115.843.433 1.457.955 1.843.698.521 1.653.781 2.862.781 1.304 0 2.311-.261 3.02-.784.708-.523 1.19-1.255 1.439-2.196.147-.576.213-1.783.204-3.624-1.232 1.459-2.767 2.188-4.604 2.188-2.287 0-4.057-.825-5.31-2.477-1.253-1.651-1.878-3.63-1.878-5.94 0-1.588.288-3.054.861-4.396.575-1.342 1.408-2.38 2.499-3.111 1.092-.73 2.373-1.097 3.847-1.097 1.962 0 3.582.792 4.856 2.374v-2h2.604v14.386c0 2.592-.264 4.428-.791 5.508-.528 1.081-1.364 1.934-2.508 2.562-1.144.627-2.552.94-4.224.94-1.984 0-3.588-.446-4.81-1.34-1.223-.893-1.814-2.237-1.771-4.034M120.139 916.236v-16.647h2.52v2.367c1.221-1.827 2.986-2.741 5.293-2.741 1.003 0 1.925.18 2.765.54.84.361 1.47.833 1.887 1.42.417.584.71 1.28.877 2.084.104.522.158 1.436.158 2.742v10.235h-2.814v-10.13c0-1.15-.109-2.01-.328-2.58-.22-.569-.608-1.025-1.166-1.363-.559-.342-1.215-.511-1.966-.511-1.2 0-2.236.381-3.108 1.145-.87.763-1.306 2.211-1.306 4.343v9.096zM140.083 906.319h9.292c-.126-1.403-.482-2.456-1.066-3.158-.898-1.089-2.064-1.633-3.494-1.633-1.296 0-2.384.435-3.267 1.304-.883.868-1.372 2.03-1.465 3.487m9.26 4.542l2.917.375c-.46 1.703-1.312 3.024-2.553 3.964-1.243.94-2.83 1.41-4.762 1.41-2.433 0-4.362-.749-5.786-2.249-1.427-1.498-2.139-3.601-2.139-6.308 0-2.8.72-4.972 2.161-6.518 1.442-1.547 3.311-2.32 5.607-2.32 2.224 0 4.041.757 5.45 2.272 1.41 1.514 2.115 3.646 2.115 6.392 0 .168-.005.42-.016.753h-12.421c.104 1.83.623 3.233 1.553 4.207.93.972 2.091 1.46 3.482 1.46 1.036 0 1.918-.274 2.652-.822.73-.546 1.312-1.418 1.74-2.616M157.673 907.93c0 2.134.45 3.727 1.347 4.785.899 1.054 1.959 1.584 3.18 1.584 1.232 0 2.279-.504 3.14-1.514.861-1.009 1.292-2.548 1.292-4.618 0-2.28-.439-3.952-1.316-5.02-.876-1.064-1.957-1.599-3.241-1.599-1.254 0-2.299.513-3.14 1.536-.84 1.027-1.262 2.641-1.262 4.847m8.918 8.305v-2.095c-1.055 1.647-2.607 2.47-4.654 2.47a6.528 6.528 0 01-3.658-1.096c-1.112-.732-1.974-1.754-2.584-3.066-.611-1.31-.918-2.817-.918-4.521 0-1.661.278-3.168.832-4.52.554-1.353 1.383-2.39 2.491-3.112 1.107-.72 2.344-1.081 3.712-1.081 1.003 0 1.896.21 2.68.634a5.6 5.6 0 011.91 1.652v-8.245h2.814v22.98zM193.176 907.881c-1.023.419-2.557.774-4.601 1.066-1.159.168-1.979.357-2.459.565a2.45 2.45 0 00-1.11.916c-.262.403-.393.85-.393 1.341 0 .754.284 1.379.852 1.88.568.503 1.399.754 2.492.754 1.084 0 2.047-.238 2.891-.714.844-.476 1.464-1.125 1.86-1.95.301-.639.453-1.579.453-2.823zm.23 6.292c-1.049.891-2.055 1.522-3.018 1.887a8.656 8.656 0 01-3.103.55c-1.822 0-3.224-.446-4.202-1.34-.979-.893-1.47-2.034-1.47-3.422 0-.816.186-1.56.555-2.233a4.613 4.613 0 011.453-1.623 6.826 6.826 0 012.024-.924c.552-.147 1.386-.288 2.5-.424 2.271-.27 3.943-.595 5.016-.97.01-.387.015-.634.015-.738 0-1.15-.265-1.961-.797-2.43-.719-.64-1.788-.958-3.206-.958-1.322 0-2.3.233-2.93.699-.632.464-1.098 1.286-1.4 2.468l-2.75-.375c.251-1.181.663-2.135 1.238-2.861.573-.726 1.402-1.284 2.489-1.675 1.085-.393 2.344-.59 3.775-.59 1.418 0 2.572.167 3.461.502.887.335 1.539.756 1.956 1.261.419.507.71 1.148.877 1.92.095.482.142 1.35.142 2.602v3.762c0 2.623.06 4.282.181 4.978.12.693.357 1.358.715 1.997h-2.938c-.302-.59-.497-1.276-.584-2.063M200.413 916.236v-16.647h2.52v2.367c1.222-1.827 2.987-2.741 5.294-2.741 1.002 0 1.925.18 2.765.54.841.361 1.47.833 1.887 1.42.417.584.71 1.28.877 2.084.104.522.157 1.436.157 2.742v10.235H211.1v-10.13c0-1.15-.11-2.01-.328-2.58-.22-.569-.608-1.025-1.167-1.363-.558-.342-1.214-.511-1.965-.511-1.2 0-2.236.381-3.108 1.145-.87.763-1.307 2.211-1.307 4.343v9.096zM220.108 907.93c0 2.134.448 3.727 1.345 4.785.899 1.054 1.959 1.584 3.18 1.584 1.232 0 2.279-.504 3.142-1.514.86-1.009 1.29-2.548 1.29-4.618 0-2.28-.438-3.952-1.314-5.02-.878-1.064-1.959-1.599-3.243-1.599-1.253 0-2.299.513-3.14 1.536-.84 1.027-1.26 2.641-1.26 4.847m8.916 8.305v-2.095c-1.055 1.647-2.607 2.47-4.653 2.47a6.527 6.527 0 01-3.658-1.096c-1.112-.732-1.974-1.754-2.585-3.066-.61-1.31-.916-2.817-.916-4.521 0-1.661.276-3.168.83-4.52.554-1.353 1.383-2.39 2.491-3.112 1.107-.72 2.344-1.081 3.714-1.081 1.002 0 1.894.21 2.678.634a5.6 5.6 0 011.911 1.652v-8.245h2.813v22.98zM244.965 916.236v-16.647h2.52v2.527c.65-1.181 1.25-1.961 1.799-2.336a3.144 3.144 0 011.816-.565c.953 0 1.921.304 2.907.909l-.987 2.61c-.688-.402-1.377-.602-2.065-.602-.615 0-1.168.184-1.658.556-.49.37-.84.885-1.049 1.544-.313 1.003-.47 2.1-.47 3.29v8.714zM257.793 906.319h9.291c-.125-1.403-.48-2.456-1.065-3.158-.899-1.089-2.063-1.633-3.494-1.633-1.296 0-2.385.435-3.268 1.304-.882.868-1.37 2.03-1.464 3.487m9.26 4.542l2.916.375c-.46 1.703-1.309 3.024-2.552 3.964-1.244.94-2.83 1.41-4.761 1.41-2.433 0-4.363-.749-5.788-2.249-1.424-1.498-2.137-3.601-2.137-6.308 0-2.8.72-4.972 2.161-6.518 1.441-1.547 3.31-2.32 5.608-2.32 2.223 0 4.04.757 5.45 2.272 1.409 1.514 2.114 3.646 2.114 6.392 0 .168-.005.42-.016.753h-12.421c.104 1.83.621 3.233 1.552 4.207.932.972 2.092 1.46 3.482 1.46 1.035 0 1.919-.274 2.651-.822.732-.546 1.312-1.418 1.741-2.616M273.467 893.256h2.812v22.979h-2.812zM282.76 906.319h9.292c-.125-1.403-.481-2.456-1.065-3.158-.899-1.089-2.063-1.633-3.494-1.633-1.296 0-2.385.435-3.268 1.304-.882.868-1.37 2.03-1.465 3.487m9.261 4.542l2.916.375c-.46 1.703-1.31 3.024-2.553 3.964-1.243.94-2.83 1.41-4.761 1.41-2.432 0-4.362-.749-5.788-2.249-1.424-1.498-2.138-3.601-2.138-6.308 0-2.8.722-4.972 2.163-6.518 1.44-1.547 3.31-2.32 5.607-2.32 2.224 0 4.04.757 5.45 2.272 1.41 1.514 2.114 3.646 2.114 6.392 0 .168-.004.42-.015.753h-12.423c.106 1.83.623 3.233 1.554 4.207.93.972 2.09 1.46 3.482 1.46 1.035 0 1.919-.274 2.65-.822.732-.546 1.313-1.418 1.742-2.616M309.101 907.881c-1.022.419-2.557.774-4.602 1.066-1.159.168-1.978.357-2.458.565-.481.208-.85.515-1.112.916a2.41 2.41 0 00-.39 1.341c0 .754.284 1.379.85 1.88.568.503 1.399.754 2.494.754 1.082 0 2.046-.238 2.89-.714.843-.476 1.463-1.125 1.859-1.95.303-.639.453-1.579.453-2.823zm.23 6.292c-1.05.891-2.055 1.522-3.019 1.887a8.649 8.649 0 01-3.101.55c-1.823 0-3.224-.446-4.204-1.34-.979-.893-1.468-2.034-1.468-3.422 0-.816.184-1.56.554-2.233a4.587 4.587 0 011.454-1.623 6.818 6.818 0 012.022-.924c.552-.147 1.386-.288 2.5-.424 2.271-.27 3.943-.595 5.016-.97.011-.387.016-.634.016-.738 0-1.15-.266-1.961-.797-2.43-.72-.64-1.788-.958-3.205-.958-1.324 0-2.302.233-2.932.699-.631.464-1.098 1.286-1.399 2.468l-2.75-.375c.25-1.181.662-2.135 1.237-2.861.574-.726 1.404-1.284 2.489-1.675 1.087-.393 2.344-.59 3.775-.59 1.42 0 2.573.167 3.461.502.887.335 1.54.756 1.957 1.261.418.507.71 1.148.878 1.92.093.482.14 1.35.14 2.602v3.762c0 2.623.06 4.282.181 4.978.12.693.359 1.358.715 1.997h-2.938c-.302-.59-.497-1.276-.582-2.063M315.192 911.256l2.79-.437c.158 1.122.595 1.985 1.311 2.582.718.598 1.719.898 3.006.898 1.298 0 2.26-.266 2.888-.794.628-.529.942-1.148.942-1.861 0-.639-.276-1.14-.828-1.507-.385-.252-1.346-.57-2.884-.958-2.072-.523-3.508-.975-4.306-1.355-.802-.381-1.408-.908-1.822-1.583a4.194 4.194 0 01-.618-2.232c0-.742.169-1.428.509-2.06a4.58 4.58 0 011.387-1.576c.438-.322 1.038-.597 1.796-.821a8.513 8.513 0 012.437-.337c1.307 0 2.453.188 3.441.564.987.376 1.716.885 2.187 1.526.47.643.795 1.5.972 2.576l-2.75.375c-.126-.856-.489-1.525-1.091-2.007-.602-.481-1.451-.721-2.55-.721-1.297 0-2.224.215-2.778.644-.555.428-.831.93-.831 1.507 0 .366.115.697.345.989.23.304.591.556 1.083.755.283.105 1.115.345 2.495.721 1.998.535 3.39.97 4.177 1.31.787.34 1.404.833 1.852 1.48.448.649.673 1.451.673 2.413 0 .94-.274 1.825-.824 2.656-.549.829-1.341 1.472-2.376 1.926-1.036.455-2.206.682-3.513.682-2.164 0-3.813-.451-4.948-1.351-1.136-.899-1.86-2.233-2.172-4.004M334.481 906.319h9.292c-.125-1.403-.481-2.456-1.065-3.158-.899-1.089-2.064-1.633-3.495-1.633-1.296 0-2.384.435-3.268 1.304-.882.868-1.37 2.03-1.464 3.487m9.26 4.542l2.918.375c-.46 1.703-1.312 3.024-2.554 3.964-1.242.94-2.829 1.41-4.762 1.41-2.432 0-4.362-.749-5.787-2.249-1.425-1.498-2.137-3.601-2.137-6.308 0-2.8.72-4.972 2.161-6.518 1.44-1.547 3.31-2.32 5.607-2.32 2.224 0 4.041.757 5.45 2.272 1.41 1.514 2.115 3.646 2.115 6.392 0 .168-.005.42-.016.753h-12.421c.104 1.83.622 3.233 1.552 4.207.93.972 2.092 1.46 3.482 1.46 1.036 0 1.919-.274 2.651-.822.732-.546 1.312-1.418 1.741-2.616M352.07 907.93c0 2.134.45 3.727 1.347 4.785.899 1.054 1.959 1.584 3.18 1.584 1.232 0 2.279-.504 3.14-1.514.862-1.009 1.292-2.548 1.292-4.618 0-2.28-.438-3.952-1.316-5.02-.877-1.064-1.957-1.599-3.241-1.599-1.253 0-2.3.513-3.14 1.536-.84 1.027-1.261 2.641-1.261 4.847m8.917 8.305v-2.095c-1.055 1.647-2.605 2.47-4.653 2.47a6.528 6.528 0 01-3.659-1.096c-1.112-.732-1.973-1.754-2.584-3.066-.61-1.31-.917-2.817-.917-4.521 0-1.661.277-3.168.83-4.52.554-1.353 1.384-2.39 2.492-3.112 1.107-.72 2.343-1.081 3.714-1.081 1.002 0 1.896.21 2.678.634.782.423 1.42.974 1.911 1.652v-8.245h2.812v22.98zM376.97 899.59h2.813v16.645h-2.812zm0-6.334h2.813v3.25h-2.812zM384.097 916.236v-16.647h2.52v2.367c1.222-1.827 2.987-2.741 5.295-2.741 1.001 0 1.923.18 2.764.54.84.361 1.47.833 1.887 1.42.418.584.71 1.28.878 2.084.104.522.156 1.436.156 2.742v10.235h-2.813v-10.13c0-1.15-.11-2.01-.33-2.58-.218-.569-.606-1.025-1.165-1.363-.558-.342-1.213-.511-1.964-.511-1.201 0-2.237.381-3.108 1.145-.872.763-1.308 2.211-1.308 4.343v9.096zM413.39 908.01c0 2.142.435 3.727 1.3 4.751.866 1.026 1.915 1.538 3.146 1.538 1.252 0 2.325-.532 3.217-1.592.891-1.063 1.338-2.706 1.338-4.932 0-2.123-.436-3.711-1.307-4.768-.87-1.055-1.913-1.584-3.123-1.584-1.198 0-2.261.562-3.184 1.686-.924 1.124-1.386 2.756-1.386 4.9m-2.542 14.602v-23.022h2.563v2.163c.605-.844 1.29-1.48 2.052-1.903.761-.424 1.687-.634 2.773-.634 1.422 0 2.674.366 3.76 1.096 1.086.732 1.906 1.765 2.459 3.097.553 1.332.83 2.79.83 4.38 0 1.703-.305 3.236-.915 4.599-.611 1.364-1.499 2.409-2.663 3.136-1.165.725-2.39 1.088-3.675 1.088-.94 0-1.784-.198-2.53-.594a5.756 5.756 0 01-1.84-1.5v8.094zM439.565 916.236v-2.455c-1.29 1.887-3.046 2.83-5.265 2.83a6.7 6.7 0 01-2.743-.564c-.848-.376-1.478-.85-1.89-1.419-.411-.57-.7-1.267-.867-2.093-.115-.554-.172-1.431-.172-2.632v-10.314h2.813v9.227c0 1.473.058 2.464.171 2.977.177.74.553 1.323 1.127 1.746.573.424 1.281.634 2.126.634.844 0 1.636-.216 2.376-.649.74-.435 1.263-1.024 1.572-1.77.307-.747.462-1.831.462-3.251v-8.914h2.81v16.647zM449.072 907.788c0 1.997.272 3.44.816 4.33.89 1.454 2.092 2.18 3.61 2.18 1.235 0 2.303-.537 3.202-1.607.9-1.072 1.35-2.67 1.35-4.794 0-2.176-.431-3.781-1.295-4.816-.863-1.036-1.907-1.553-3.131-1.553-1.235 0-2.303.536-3.203 1.608-.898 1.07-1.349 2.621-1.349 4.652m.041 8.448h-2.604v-22.98h2.812v8.193c1.194-1.489 2.714-2.234 4.566-2.234 1.025 0 1.994.205 2.91.62a5.927 5.927 0 012.259 1.74c.59.745 1.055 1.646 1.388 2.702.336 1.055.503 2.184.503 3.386 0 2.852-.706 5.056-2.119 6.613-1.412 1.556-3.108 2.335-5.084 2.335-1.968 0-3.51-.818-4.63-2.454zM464.308 893.256h2.812v22.979h-2.812zM471.497 899.59h2.812v16.645h-2.812zm0-6.334h2.812v3.25h-2.812zM489.479 910.132l2.772.375c-.304 1.909-1.08 3.404-2.33 4.484-1.248 1.081-2.782 1.62-4.6 1.62-2.278 0-4.109-.746-5.494-2.234-1.386-1.488-2.076-3.622-2.076-6.402 0-1.796.297-3.37.892-4.716.596-1.348 1.501-2.359 2.718-3.034a8.081 8.081 0 013.974-1.01c1.806 0 3.286.458 4.434 1.372 1.148.916 1.886 2.216 2.21 3.898l-2.75.418c-.261-1.12-.722-1.963-1.386-2.528-.663-.566-1.464-.847-2.404-.847-1.42 0-2.575.51-3.462 1.53-.888 1.02-1.332 2.633-1.332 4.84 0 2.238.43 3.863 1.287 4.878.859 1.015 1.977 1.523 3.359 1.523 1.108 0 2.033-.342 2.776-1.023.742-.681 1.213-1.73 1.412-3.144M505.43 907.93c0 2.134.45 3.727 1.347 4.785.899 1.054 1.959 1.584 3.18 1.584 1.232 0 2.279-.504 3.14-1.514.862-1.009 1.292-2.548 1.292-4.618 0-2.28-.438-3.952-1.314-5.02-.879-1.064-1.959-1.599-3.243-1.599-1.252 0-2.3.513-3.14 1.536-.84 1.027-1.261 2.641-1.261 4.847m8.917 8.305v-2.095c-1.055 1.647-2.607 2.47-4.653 2.47a6.528 6.528 0 01-3.659-1.096c-1.112-.732-1.973-1.754-2.584-3.066-.612-1.31-.917-2.817-.917-4.521 0-1.661.276-3.168.83-4.52.554-1.353 1.384-2.39 2.492-3.112 1.107-.72 2.344-1.081 3.712-1.081 1.003 0 1.896.21 2.68.634a5.6 5.6 0 011.911 1.652v-8.245h2.812v22.98zM523.25 907.916c0 2.132.465 3.728 1.394 4.79.93 1.06 2.1 1.593 3.51 1.593 1.4 0 2.563-.535 3.493-1.6.93-1.067 1.394-2.692 1.394-4.878 0-2.06-.466-3.62-1.402-4.682-.935-1.059-2.096-1.591-3.486-1.591-1.409 0-2.578.53-3.509 1.584-.93 1.057-1.393 2.65-1.393 4.784m-2.896-.003c0-3.082.854-5.365 2.568-6.849 1.43-1.232 3.173-1.85 5.23-1.85 2.287 0 4.155.751 5.607 2.25 1.452 1.5 2.177 3.57 2.177 6.215 0 2.14-.321 3.825-.964 5.053a6.81 6.81 0 01-2.802 2.86c-1.227.679-2.566 1.019-4.018 1.019-2.328 0-4.21-.748-5.645-2.242-1.436-1.493-2.153-3.646-2.153-6.456M539.248 916.236v-16.647h2.52v2.33a5.927 5.927 0 012.081-1.962c.866-.494 1.85-.742 2.956-.742 1.23 0 2.239.256 3.027.765.787.512 1.343 1.225 1.665 2.143 1.318-1.939 3.034-2.908 5.146-2.908 1.653 0 2.924.457 3.813 1.37.89.916 1.333 2.324 1.333 4.224v11.427h-2.813v-10.49c0-1.13-.09-1.942-.275-2.44-.181-.497-.513-.895-.994-1.2-.482-.302-1.047-.454-1.694-.454-1.172 0-2.145.39-2.918 1.168-.774.78-1.16 2.027-1.16 3.741v9.675h-2.812v-10.82c0-1.255-.23-2.196-.69-2.823-.46-.626-1.21-.941-2.254-.941-.794 0-1.527.21-2.202.628-.672.417-1.161 1.03-1.462 1.835-.303.804-.455 1.965-.455 3.48v8.641zM576.584 907.881c-1.023.419-2.557.774-4.604 1.066-1.157.168-1.976.357-2.456.565-.481.208-.85.515-1.11.916a2.4 2.4 0 00-.393 1.341c0 .754.284 1.379.851 1.88.568.503 1.399.754 2.492.754 1.084 0 2.048-.238 2.89-.714.845-.476 1.465-1.125 1.86-1.95.303-.639.454-1.579.454-2.823zm.228 6.292c-1.048.891-2.055 1.522-3.017 1.887a8.649 8.649 0 01-3.102.55c-1.824 0-3.224-.446-4.204-1.34-.978-.893-1.468-2.034-1.468-3.422 0-.816.184-1.56.555-2.233a4.596 4.596 0 011.452-1.623 6.841 6.841 0 012.024-.924c.552-.147 1.385-.288 2.5-.424 2.27-.27 3.943-.595 5.016-.97.01-.387.016-.634.016-.738 0-1.15-.267-1.961-.799-2.43-.718-.64-1.786-.958-3.204-.958-1.325 0-2.301.233-2.932.699-.63.464-1.097 1.286-1.398 2.468l-2.751-.375c.25-1.181.663-2.135 1.237-2.861.574-.726 1.403-1.284 2.49-1.675 1.085-.393 2.345-.59 3.774-.59 1.419 0 2.574.167 3.462.502.886.335 1.538.756 1.956 1.261.418.507.71 1.148.878 1.92.094.482.14 1.35.14 2.602v3.762c0 2.623.06 4.282.182 4.978.12.693.357 1.358.714 1.997h-2.937c-.304-.59-.497-1.276-.584-2.063M583.82 899.59h2.812v16.645h-2.812zm0-6.334h2.812v3.25h-2.812zM590.947 916.236v-16.647h2.521v2.367c1.221-1.827 2.985-2.741 5.293-2.741 1.003 0 1.924.18 2.766.54.838.361 1.468.833 1.886 1.42.418.584.71 1.28.878 2.084.104.522.156 1.436.156 2.742v10.235h-2.812v-10.13c0-1.15-.11-2.01-.33-2.58-.22-.569-.609-1.025-1.166-1.363-.558-.342-1.214-.511-1.964-.511-1.202 0-2.238.381-3.108 1.145-.872.763-1.308 2.211-1.308 4.343v9.096zM620.241 907.788c0 1.997.272 3.44.816 4.33.89 1.454 2.092 2.18 3.611 2.18 1.235 0 2.303-.537 3.201-1.607.9-1.072 1.351-2.67 1.351-4.794 0-2.176-.432-3.781-1.296-4.816-.863-1.036-1.907-1.553-3.13-1.553-1.235 0-2.303.536-3.203 1.608-.899 1.07-1.35 2.621-1.35 4.652m.042 8.448h-2.604v-22.98h2.812v8.193c1.193-1.489 2.713-2.234 4.565-2.234 1.025 0 1.995.205 2.91.62a5.927 5.927 0 012.26 1.74c.59.745 1.054 1.646 1.387 2.702.336 1.055.503 2.184.503 3.386 0 2.852-.705 5.056-2.119 6.613-1.413 1.556-3.108 2.335-5.084 2.335-1.968 0-3.51-.818-4.63-2.454zM635.416 922.639l-.313-2.654c.614.167 1.152.251 1.61.251.627 0 1.127-.104 1.502-.313.374-.21.684-.503.924-.878.176-.282.462-.981.86-2.098.052-.158.136-.387.25-.691l-6.333-16.667h3.04l3.47 9.598c.45 1.216.853 2.496 1.21 3.838a40.275 40.275 0 011.164-3.729l3.553-9.707h2.819l-6.31 16.939c-.68 1.825-1.209 3.08-1.585 3.77-.501.926-1.076 1.606-1.724 2.04-.648.431-1.421.647-2.32.647-.542 0-1.149-.114-1.817-.346M660.992 916.236v-22.98h15.5v2.71h-12.459v7.123h10.792v2.71h-10.792v10.437zM680.045 916.236v-16.647h2.522v2.527c.649-1.181 1.248-1.961 1.798-2.336a3.14 3.14 0 011.816-.565c.954 0 1.922.304 2.906.909l-.987 2.61c-.687-.402-1.376-.602-2.065-.602-.615 0-1.167.184-1.658.556-.489.37-.84.885-1.048 1.544-.314 1.003-.47 2.1-.47 3.29v8.714zM692.873 906.319h9.292c-.125-1.403-.48-2.456-1.065-3.158-.899-1.089-2.064-1.633-3.495-1.633-1.296 0-2.384.435-3.266 1.304-.883.868-1.371 2.03-1.466 3.487m9.262 4.542l2.916.375c-.46 1.703-1.311 3.024-2.554 3.964-1.242.94-2.829 1.41-4.761 1.41-2.432 0-4.363-.749-5.787-2.249-1.425-1.498-2.138-3.601-2.138-6.308 0-2.8.72-4.972 2.161-6.518 1.441-1.547 3.31-2.32 5.608-2.32 2.224 0 4.041.757 5.45 2.272 1.409 1.514 2.114 3.646 2.114 6.392 0 .168-.005.42-.015.753h-12.422c.104 1.83.622 3.233 1.552 4.207.932.972 2.093 1.46 3.484 1.46 1.034 0 1.917-.274 2.65-.822.732-.546 1.311-1.418 1.742-2.616M710.713 906.319h9.292c-.126-1.403-.48-2.456-1.065-3.158-.899-1.089-2.064-1.633-3.495-1.633-1.296 0-2.384.435-3.266 1.304-.883.868-1.372 2.03-1.466 3.487m9.26 4.542l2.918.375c-.46 1.703-1.311 3.024-2.554 3.964-1.242.94-2.829 1.41-4.76 1.41-2.434 0-4.364-.749-5.788-2.249-1.426-1.498-2.138-3.601-2.138-6.308 0-2.8.72-4.972 2.161-6.518 1.441-1.547 3.31-2.32 5.607-2.32 2.224 0 4.041.757 5.45 2.272 1.411 1.514 2.115 3.646 2.115 6.392 0 .168-.005.42-.015.753h-12.422c.104 1.83.622 3.233 1.553 4.207.93.972 2.092 1.46 3.483 1.46 1.034 0 1.918-.274 2.65-.822.732-.546 1.312-1.418 1.74-2.616M725.784 908.861l2.875-.25c.136 1.152.45 2.098.945 2.837.495.739 1.264 1.336 2.307 1.792 1.041.455 2.214.683 3.516.683 1.157 0 2.178-.172 3.064-.518.885-.346 1.544-.821 1.978-1.424a3.305 3.305 0 00.648-1.968c0-.721-.208-1.35-.624-1.889-.414-.539-1.104-.99-2.065-1.356-.616-.24-1.979-.615-4.088-1.123-2.11-.506-3.59-.985-4.437-1.436-1.099-.574-1.918-1.289-2.456-2.142-.539-.852-.808-1.808-.808-2.866 0-1.161.329-2.246.988-3.256.657-1.009 1.62-1.776 2.884-2.3 1.264-.522 2.67-.784 4.217-.784 1.704 0 3.205.274 4.508.822 1.301.548 2.301 1.353 3.003 2.417.7 1.064 1.076 2.268 1.128 3.615l-2.916.229c-.158-1.45-.687-2.544-1.59-3.285-.904-.742-2.24-1.111-4.004-1.111-1.84 0-3.178.337-4.02 1.012-.841.676-1.261 1.488-1.261 2.44 0 .827.297 1.507.893 2.04.584.535 2.114 1.081 4.583 1.64 2.47.56 4.165 1.048 5.085 1.465 1.336.616 2.324 1.398 2.962 2.343.637.945.956 2.035.956 3.265 0 1.223-.351 2.375-1.05 3.455-.7 1.083-1.702 1.923-3.013 2.523-1.31.6-2.785.901-4.423.901-2.077 0-3.818-.304-5.221-.91-1.404-.605-2.505-1.517-3.304-2.734-.797-1.216-1.219-2.592-1.26-4.127M754.75 916.236l-8.887-22.98h3.296l5.97 16.688a53.41 53.41 0 011.207 3.76 48.169 48.169 0 011.239-3.76l6.209-16.688h3.108l-8.997 22.98zM780.347 907.236v-2.708h9.729v8.517c-1.493 1.191-3.036 2.087-4.624 2.686a13.695 13.695 0 01-4.888.901c-2.259 0-4.308-.484-6.15-1.45-1.846-.967-3.238-2.366-4.178-4.195-.94-1.83-1.41-3.874-1.41-6.131 0-2.237.467-4.325 1.402-6.264.935-1.94 2.28-3.38 4.035-4.32 1.756-.941 3.777-1.41 6.065-1.41 1.66 0 3.163.269 4.505.807 1.343.539 2.395 1.291 3.158 2.252.762.963 1.342 2.219 1.74 3.77l-2.744.75c-.346-1.17-.774-2.09-1.287-2.761-.51-.67-1.243-1.208-2.193-1.61-.952-.403-2.008-.605-3.168-.605-1.39 0-2.592.211-3.606.635-1.014.423-1.833.98-2.454 1.67a7.977 7.977 0 00-1.451 2.271c-.584 1.422-.877 2.963-.877 4.624 0 2.048.353 3.762 1.058 5.14.706 1.382 1.732 2.404 3.08 3.074a9.548 9.548 0 004.296 1.002c1.318 0 2.603-.252 3.859-.757 1.253-.507 2.204-1.045 2.852-1.62v-4.268zM794.985 913.028h3.208v3.208h-3.208zM804.94 907.916c0 2.132.465 3.728 1.395 4.79.929 1.06 2.098 1.593 3.509 1.593 1.4 0 2.564-.535 3.493-1.6.93-1.067 1.395-2.692 1.395-4.878 0-2.06-.468-3.62-1.403-4.682-.934-1.059-2.096-1.591-3.485-1.591-1.41 0-2.58.53-3.51 1.584-.929 1.057-1.394 2.65-1.394 4.784m-2.896-.003c0-3.082.856-5.365 2.57-6.849 1.429-1.232 3.173-1.85 5.23-1.85 2.287 0 4.155.751 5.607 2.25 1.452 1.5 2.177 3.57 2.177 6.215 0 2.14-.323 3.825-.964 5.053a6.818 6.818 0 01-2.803 2.86c-1.226.679-2.565 1.019-4.017 1.019-2.328 0-4.21-.748-5.647-2.242-1.436-1.493-2.153-3.646-2.153-6.456M820.905 916.236v-16.647h2.52v2.527c.651-1.181 1.25-1.961 1.8-2.336a3.133 3.133 0 011.815-.565c.953 0 1.923.304 2.907.909l-.987 2.61c-.688-.402-1.376-.602-2.065-.602-.615 0-1.167.184-1.658.556-.489.37-.84.885-1.048 1.544-.316 1.003-.472 2.1-.472 3.29v8.714zM833.436 907.616c0 2.185.433 3.779 1.3 4.781.865 1.004 1.95 1.506 3.255 1.506 1.294 0 2.378-.499 3.256-1.498.877-.997 1.314-2.562 1.314-4.696 0-2.037-.45-3.573-1.354-4.609-.902-1.033-1.99-1.552-3.263-1.552-1.252 0-2.316.51-3.193 1.53-.876 1.018-1.315 2.531-1.315 4.538m-2.333 9.995l2.75.417c.115.843.434 1.457.954 1.843.7.521 1.654.781 2.864.781 1.302 0 2.309-.261 3.02-.784.708-.523 1.188-1.255 1.438-2.196.146-.576.214-1.783.203-3.624-1.232 1.459-2.765 2.188-4.604 2.188-2.287 0-4.056-.825-5.31-2.477-1.251-1.651-1.878-3.63-1.878-5.94 0-1.588.288-3.054.863-4.396.573-1.342 1.406-2.38 2.498-3.111 1.091-.73 2.374-1.097 3.846-1.097 1.962 0 3.582.792 4.856 2.374v-2h2.604v14.386c0 2.592-.263 4.428-.791 5.508-.528 1.081-1.364 1.934-2.507 2.562-1.145.627-2.552.94-4.224.94-1.985 0-3.589-.446-4.812-1.34-1.222-.893-1.812-2.237-1.77-4.034"/>
    <path d="M317.885 545.777c9.214-1.268 26.203 3.423 22.176 19.53 9.868-21.658-13.218-30.055-22.176-19.53m39.386 52.959c9.708 1.077 18.542.59 23.83-6.288 5.959 3.75 11.916 7.501 17.874 11.252l-18.203-25.155c-3.563 11.003-11.996 17.131-23.501 20.191m-38.23-167.337l.064.282 58.696-2.578 9.93 30.45c-.55 34.882-25.472 50.523-59.578 58.915 54.468-1.187 95.035-16.787 78.774-91.352 40.602-15.224 81.204-30.45 121.805-45.675zm-1.34.345l1.334-.345-1.474.35zm-62.804 293.887l-31.73-33.08c-30.898-32.194-39.206-77.918-23.859-117.547 12.12-31.297 11.152-62.652-2.88-93.143-17.987-39.085-13.427-84.341 13.427-120.009l24.824-32.975 7.417-13.717-40.561 46.03c-10.882 12.345-19.236 25.845-24.976 39.835-38.67-1.03-61.464-8.248-61.464-21.993 0-22.796 62.672-57.879 156.536-91.583 2.576 8.782 7.553 16.572 14.829 23.127 11.25 10.132 24.86 14.499 39.905 12.796 99.947-11.308 219.812-39.984 308.584-87.684a36.97 36.97 0 0019.479-34.444c69.26-5.15 113.1 1.364 113.1 20.428 0 34.805-146.05 98.247-326.219 141.699a1830.965 1830.965 0 01-43.056 9.837c45.43-6.319 97.198-16.177 152.152-29.432 47.188-11.38 92.024-24.135 132.523-37.384 9.968 39.275 6.261 81.2-5.515 118.615-6.488 20.596-10.572 40.766-12.262 60.769l54.546-61.143 6.619 258.17-264.123 149.604 1.722-20.164-29.855-60.598 27.139-27.469 5.434 56.239 6.814-79.74 22.176-24.859a35.944 35.944 0 00-17.763-.365 184.003 184.003 0 01-16.553 3.045c-14.112 1.933-25.638 7.527-35.527 17.228-27.187 26.692-73.264 1.028-63.26-33.956 1.277-4.465 2.112-8.776 2.51-13.065 1.237-13.372-7.343-25.419-20.927-29.388l-.216-.063-60.519 95.993-14.297-8.476 61.142-97.929 5.568-2.319-10.473-4.818c3.37-7.687 3.883-21.606-3.396-29.635-7.277-8.035-33.78-3.628-40.052-25.344 10.456-17.777 17.439-33.89 22.71-52.572l-17.629-54.457 12.238-3.167c-3.654-7.15-5.103-14.875-4.391-23.321l1.812-21.464c-29.71 4.321-56.85 7.173-80.58 8.518-1.901 24.784 4.303 49.3 18.35 71.267 23.866 37.313 25.655 81.3 4.895 120.433-16.732 31.539-17.282 69.044-.248 102.488zM631.33 166.459c-20.642-40.527-44.29-78.298-69.232-113.567-10.232-14.473-28.878-19.512-45.009-12.16a218.195 218.195 0 00-17.479 8.921c-37.913 21.56-76.924 28.788-120.041 22.247a341.053 341.053 0 00-26.93-3.02c-23.393-1.687-44.298 11.376-53.045 33.136-20.628 51.33-26.484 103.987-24.213 159.58 94.396 6.608 265.832-22.197 355.95-95.137" fill-rule="evenodd"/>
  </g>
</svg>
